<?xml version="1.0" encoding="UTF-8" standalone="no"?>
<!-- Created with Inkscape (http://www.inkscape.org/) -->
<svg
   xmlns:dc="http://purl.org/dc/elements/1.1/"
   xmlns:cc="http://creativecommons.org/ns#"
   xmlns:rdf="http://www.w3.org/1999/02/22-rdf-syntax-ns#"
   xmlns:svg="http://www.w3.org/2000/svg"
   xmlns="http://www.w3.org/2000/svg"
   xmlns:xlink="http://www.w3.org/1999/xlink"
   xmlns:sodipodi="http://sodipodi.sourceforge.net/DTD/sodipodi-0.dtd"
   xmlns:inkscape="http://www.inkscape.org/namespaces/inkscape"
   width="210mm"
   height="297mm"
   id="svg2384"
   sodipodi:version="0.32"
   inkscape:version="0.46"
   sodipodi:docname="kbug-bug.svg"
   inkscape:output_extension="org.inkscape.output.svg.inkscape">
  <defs
     id="defs3">
    <inkscape:path-effect
       effect="bend_path"
       id="path-effect4767"
       bendpath="M 89.8026,300.708 L 153.442,300.708 "
       prop_scale="1" />
    <inkscape:path-effect
       effect="skeletal"
       id="path-effect4765"
       prop_scale="1" />
    <inkscape:path-effect
       effect="skeletal"
       id="path-effect4763"
       prop_scale="1" />
    <inkscape:path-effect
       effect="skeletal"
       id="path-effect4761"
       prop_scale="1" />
    <inkscape:path-effect
       effect="skeletal"
       id="path-effect4759"
       prop_scale="1"
       copytype="single_stretched" />
    <inkscape:path-effect
       effect="bend_path"
       id="path-effect4757"
       bendpath="M 224.2,262.524 L 300.474,262.524 "
       prop_scale="1" />
    <inkscape:path-effect
       effect="bend_path"
       id="path-effect4755"
       bendpath="M 224.2,262.524 L 300.474,262.524 "
       prop_scale="1" />
    <inkscape:path-effect
       effect="bend_path"
       id="path-effect4753"
       bendpath="M 224.2,262.524 L 300.474,262.524 "
       prop_scale="1" />
    <inkscape:path-effect
       effect="bend_path"
       id="path-effect4751"
       bendpath="M 224.2,262.524 L 300.474,262.524 "
       prop_scale="1" />
    <inkscape:path-effect
       effect="bend_path"
       id="path-effect4749"
       bendpath="M 224.2,262.524 L 300.474,262.524 "
       prop_scale="1" />
    <inkscape:path-effect
       effect="bend_path"
       id="path-effect3264"
       bendpath="M 21.2132,575.066 L 709.935,575.066 "
       prop_scale="1" />
    <inkscape:path-effect
       effect="bend_path"
       id="path-effect3262"
       bendpath="M 72.1247,777.297 L 760.847,777.297 "
       prop_scale="1" />
    <inkscape:path-effect
       effect="bend_path"
       id="path-effect3260"
       bendpath="M 107.48,669.817 L 796.202,669.817 "
       prop_scale="1" />
    <inkscape:perspective
       sodipodi:type="inkscape:persp3d"
       inkscape:vp_x="0 : 526.18109 : 1"
       inkscape:vp_y="0 : 1000 : 0"
       inkscape:vp_z="744.09448 : 526.18109 : 1"
       inkscape:persp3d-origin="372.04724 : 350.78739 : 1"
       id="perspective2390" />
  </defs>
  <sodipodi:namedview
     inkscape:document-units="mm"
     id="base"
     pagecolor="#ffffff"
     bordercolor="#666666"
     borderopacity="1.0"
     inkscape:pageopacity="0.0"
     inkscape:pageshadow="2"
     inkscape:zoom="0.70710678"
     inkscape:cx="378.50058"
     inkscape:cy="493.1379"
     inkscape:current-layer="layer2"
     showgrid="false"
     inkscape:window-width="1024"
     inkscape:window-height="678"
     inkscape:window-x="0"
     inkscape:window-y="32" />
  <metadata
     id="metadata4">
    <rdf:RDF>
      <cc:Work
         rdf:about="">
        <dc:format>image/svg+xml</dc:format>
        <dc:type
           rdf:resource="http://purl.org/dc/dcmitype/StillImage" />
      </cc:Work>
    </rdf:RDF>
  </metadata>
  <g
     inkscape:label="Layer 1"
     inkscape:groupmode="layer"
     id="layer1"
     style="display:none">
    <image
       xlink:href="kbug-bug.gif"
       sodipodi:absref="kbug-bug.gif"
       width="712"
       height="593.33331"
       id="image11"
       x="12.571443"
       y="236.64789" />
  </g>
  <g
     inkscape:groupmode="layer"
     id="layer2"
     inkscape:label="path"
     style="display:inline">
    <path
       style="fill:#c60000;fill-opacity:1;fill-rule:evenodd;stroke:#000000;stroke-width:17.71653557;stroke-linecap:butt;stroke-linejoin:miter;stroke-miterlimit:4;stroke-dasharray:none;stroke-opacity:1"
       d="M 77.781751,569.42593 C 77.678553,559.01469 88.23373,552.03692 98.651156,545.73908 C 101.7199,538.64899 130.14686,528.2087 130.39521,535.17068 C 125.90336,549.87541 84.868062,585.22889 88.537285,601.08052 C 89.459568,609.53582 79.641317,636.69612 89.997014,636.58339 C 98.250925,633.50141 102.41217,606.47325 106.9647,598.35348 C 112.68438,587.08766 125.72768,570.32188 137.17872,564.45847 C 132.22307,588.66124 139.15747,583.90633 130.10765,606.88489 C 132.97774,621.75553 127.07368,656.78176 127.42844,674.70884 C 130.44172,683.12749 133.66202,658.28121 136.76188,652.78734 C 141.4492,637.18798 149.2907,615.18544 157.88086,601.52845 C 167.85035,582.3709 183.8483,574.32349 182.81746,593.29674 C 186.85029,615.09671 179.34111,649.74833 178.1909,671.93872 C 189.68857,677.91272 199.1737,644.9047 202.47502,633.47169 C 203.66041,620.40573 210.80659,589.89658 216.04112,608.21405 C 218.1235,620.57514 218.19077,671.99061 230.39306,669.11029 C 238.1259,657.52838 250.02311,611.06245 251.73002,596.98538 C 259.712,604.69679 270.87059,645.03336 269.93125,656.20949 C 270.74005,666.83932 261.7545,681.37767 250.31359,687.49732 C 240.46832,696.31212 231.50765,705.71519 228.2669,718.9221 C 222.55262,728.64278 221.06339,738.66679 225.77448,749.13594 C 219.75606,762.57172 238.36755,718.42421 237.7394,708.79245 C 237.76259,697.02988 267.48258,692.32449 274.35744,684.66668 C 286.36822,692.71081 267.92986,723.96236 264.00345,732.34115 C 257.94069,743.57512 255.82609,744.6464 259.53409,758.56851 C 254.5081,768.4183 255.26997,789.59745 255.1965,779.97133 C 255.17323,771.02401 269.32402,728.36877 277.72812,728.71981 C 282.11078,740.80948 276.57271,775.9989 288.88623,782.83813 C 297.1198,791.84342 305.53824,796.47985 317.75737,798.12104 C 331.40439,802.23899 340.76801,806.95255 354.99395,802.60856 C 365.11412,799.33953 387.95558,784.63954 391.72142,771.95973 C 402.29833,753.36182 405.77068,749.25287 422.33234,735.06755 C 428.14859,723.34441 452.02053,729.63529 461.71084,729.88856 C 478.25406,730.13868 486.73912,748.62623 498.88448,758.1224 C 507.80305,767.44468 504.76983,790.12206 518.98313,792.00622 C 528.68766,794.54723 539.22904,803.79135 547.32312,793.43269 C 556.13076,785.89564 569.35947,781.64854 575.20344,771.90605 C 579.33699,759.85806 580.58211,745.91232 593.02244,739.32203 C 602.88094,733.68178 606.67454,724.14231 608.70759,713.47095 C 613.4071,697.31363 621.43946,682.34516 626.49658,666.28186 C 639.45719,665.43538 652.12622,666.00942 663.47071,673.03654 C 673.19791,676.43704 683.14571,666.86347 692.96466,664.86768 C 699.3636,654.77945 710.00181,646.23152 708.02735,633.10089 C 706.63404,623.51131 715.05199,609.66164 704.57926,604.01439 C 680.00945,583.8443 653.38255,565.39013 634.98187,539.00269 C 632.87748,523.02104 630.22799,507.17848 623.66815,492.33362 C 613.30831,515.55099 605.96715,540.46731 588.84028,559.87613 C 577.0136,581.02673 553.1801,590.56954 536.5189,606.94107 C 531.03624,617.07819 521.46775,626.23899 525.52842,638.65652 C 523.94158,651.10303 539.49748,654.3036 546.51913,662.10712 C 554.12649,666.54218 567.73887,665.22276 575.18147,661.02844 C 584.03857,651.40091 591.9594,643.2883 583.9749,660.911 C 578.57695,681.15208 566.41383,705.73477 557.20016,724.2646 C 546.45496,718.98434 533.24561,720.5779 528.12025,708.78389 C 520.57317,694.79306 503.01571,682.12671 490.17844,673.18228 C 476.34741,659.78468 469.89469,662.74722 452.54833,656.3824 C 439.1974,659.99625 418.56747,660.9589 406.21036,666.19701 C 396.10012,680.35153 376.33798,676.753 368.89721,692.37533 C 371.03629,703.83847 352.88346,710.84238 351.41166,699.37314 C 347.43889,677.73094 345.45159,655.98747 347.71593,634.02715 C 350.1263,627.55276 327.60705,582.23335 336.72965,588.35415 C 353.31487,598.45108 348.78306,594.97133 404.31756,610.27149 C 418.59988,613.97 385.10416,569.00826 388.87874,559.85941 C 389.47395,533.33171 445.43968,597.83923 455.19945,600.35331 C 464.08897,605.83089 428.14762,545.87736 426.5758,536.13296 C 426.5772,524.3442 479.84383,564.41135 494.48238,567.33617 C 508.43312,569.77796 499.08522,562.70981 498.6552,550.29002 C 499.01314,540.18452 458.07721,522.42169 452.50154,514.40211 C 439.73734,505.14677 423.90479,495.8046 439.69665,497.99046 C 452.68842,498.37816 510.49788,513.62311 520.87984,523.43304 C 529.8746,528.96621 548.87263,544.71026 550.41516,527.88668 C 552.89548,518.64205 541.88185,502.34344 520.59615,486.91576 C 508.67386,476.09444 488.43389,465.69774 472.17008,461.47408 C 466.04123,457.56918 416.02818,453.42253 420.55588,450.64885 C 435.69547,445.52231 520.51426,451.05096 535.98694,452.73563 C 532.31355,442.55326 522.74504,428.47601 510.35075,424.56222 C 496.87374,416.79986 489.26849,411.47402 472.55889,412.90779 C 455.91451,409.72023 430.88552,410.56948 414.41418,414.32074 C 416.33009,410.20297 443.51007,388.15227 462.44783,377.78233 C 475.43003,372.41881 492.44338,366.22334 511.94531,349.49804 C 531.44724,332.77274 482.27997,343.2777 462.0943,343.84119 C 442.84316,342.30995 425.73455,353.91647 407.93309,359.62547 C 389.25956,364.5064 386.00346,361.48054 365.986,362.42539 C 321.9589,374.41297 282.17443,384.63278 242.38997,394.85259 C 202.6055,405.0724 186.86267,436.50541 142.83557,448.49299 C 128.36745,450.09832 78.56303,460.00646 65.00684,464.50415 C 54.222488,473.08471 36.641651,469.96308 33.216834,484.87609 C 28.651725,497.76754 36.534957,497.19666 42.78529,488.397 C 57.659061,479.17995 93.767777,467.7596 111.72287,468.29199 C 115.77319,474.63413 131.90926,493.16571 114.49022,491.60311 C 107.54306,487.22334 105.52437,495.98953 89.747078,496.99992 C 75.31586,501.89906 45.556988,520.74642 36.769557,531.93158 C 35.78213,540.6146 56.304188,533.18385 63.740303,520.96622 C 72.473519,507.5745 85.342795,519.08719 103.23759,513.54682 C 90.366487,527.63272 88.649604,523.09152 79.033384,539.29544 C 78.89133,552.39902 72.599252,551.09301 63.350712,593.5792 C 81.764101,563.35371 96.468435,562.93389 90.509673,551.04115"
       sodipodi:nodetypes="cccccccccccccccccccccccccccccccccccccccccccccccccccccccccccccccccccccccccccccccccccsccccccccccccc" />
    <path
       sodipodi:type="arc"
       style="fill:#000000;fill-opacity:1"
       id="path2381"
       sodipodi:cx="191.62593"
       sodipodi:cy="399.70264"
       sodipodi:rx="27.577164"
       sodipodi:ry="30.405592"
       d="M 219.20309,399.70264 A 27.577164,30.405592 0 1 1 164.04877,399.70264 A 27.577164,30.405592 0 1 1 219.20309,399.70264 z"
       transform="matrix(1,0,0,1.1395349,-7.0710678,-54.358247)" />
    <g
       id="g3215">
      <g
         id="g3207">
        <g
           id="g3175"
           transform="translate(2.0285276e-6,8.2715815e-8)">
          <path
             transform="matrix(2.8461539,0,0,2.4883721,-388.41918,-594.19916)"
             d="M 219.20309,399.70264 A 27.577164,30.405592 0 1 1 164.04877,399.70264 A 27.577164,30.405592 0 1 1 219.20309,399.70264 z"
             sodipodi:ry="30.405592"
             sodipodi:rx="27.577164"
             sodipodi:cy="399.70264"
             sodipodi:cx="191.62593"
             id="path3169"
             style="fill:#000000;fill-opacity:1;display:inline"
             sodipodi:type="arc" />
          <path
             transform="matrix(2.2820513,0,0,2.1395349,-280.3225,-454.0609)"
             d="M 219.20309,399.70264 A 27.577164,30.405592 0 1 1 164.04877,399.70264 A 27.577164,30.405592 0 1 1 219.20309,399.70264 z"
             sodipodi:ry="30.405592"
             sodipodi:rx="27.577164"
             sodipodi:cy="399.70264"
             sodipodi:cx="191.62593"
             id="path3173"
             style="fill:#ffffff;fill-opacity:1;display:inline"
             sodipodi:type="arc" />
        </g>
        <g
           id="g3179"
           transform="translate(7.0710732,-16.970561)">
          <path
             transform="matrix(1,0,0,1.1395349,-9.1923809,-45.16588)"
             d="M 219.20309,399.70264 A 27.577164,30.405592 0 1 1 164.04877,399.70264 A 27.577164,30.405592 0 1 1 219.20309,399.70264 z"
             sodipodi:ry="30.405592"
             sodipodi:rx="27.577164"
             sodipodi:cy="399.70264"
             sodipodi:cx="191.62593"
             id="path3157"
             style="fill:#000000;fill-opacity:1"
             sodipodi:type="arc" />
          <path
             inkscape:transform-center-y="16.970566"
             inkscape:transform-center-x="67.882244"
             transform="matrix(0.4102563,0,0,0.5581396,115.83861,176.61274)"
             d="M 219.20309,399.70264 A 27.577164,30.405592 0 1 1 164.04877,399.70264 A 27.577164,30.405592 0 1 1 219.20309,399.70264 z"
             sodipodi:ry="30.405592"
             sodipodi:rx="27.577164"
             sodipodi:cy="399.70264"
             sodipodi:cx="191.62593"
             id="path3167"
             style="fill:#ffffff;fill-opacity:1;display:inline"
             sodipodi:type="arc" />
        </g>
      </g>
      <g
         id="g3199">
        <g
           id="g3195">
          <path
             transform="matrix(3.0769232,0,0,2.744186,-290.5121,-729.68268)"
             d="M 219.20309,399.70264 A 27.577164,30.405592 0 1 1 164.04877,399.70264 A 27.577164,30.405592 0 1 1 219.20309,399.70264 z"
             sodipodi:ry="30.405592"
             sodipodi:rx="27.577164"
             sodipodi:cy="399.70264"
             sodipodi:cx="191.62593"
             id="path3171"
             style="fill:#000000;fill-opacity:1;display:inline"
             sodipodi:type="arc" />
          <path
             transform="matrix(2.4871795,0,0,2.3023255,-178.20903,-548.12016)"
             d="M 219.20309,399.70264 A 27.577164,30.405592 0 1 1 164.04877,399.70264 A 27.577164,30.405592 0 1 1 219.20309,399.70264 z"
             sodipodi:ry="30.405592"
             sodipodi:rx="27.577164"
             sodipodi:cy="399.70264"
             sodipodi:cx="191.62593"
             id="path3183"
             style="fill:#ffffff;fill-opacity:1;display:inline"
             sodipodi:type="arc" />
        </g>
        <g
           id="g3189"
           transform="translate(-4.2426356,1.414213)">
          <path
             transform="matrix(1.1538461,0,0,1.0465117,41.936878,-41.925365)"
             d="M 219.20309,399.70264 A 27.577164,30.405592 0 1 1 164.04877,399.70264 A 27.577164,30.405592 0 1 1 219.20309,399.70264 z"
             sodipodi:ry="30.405592"
             sodipodi:rx="27.577164"
             sodipodi:cy="399.70264"
             sodipodi:cx="191.62593"
             id="path3163"
             style="fill:#000000;fill-opacity:1"
             sodipodi:type="arc" />
          <path
             inkscape:transform-center-y="14.84926"
             inkscape:transform-center-x="46.669035"
             transform="matrix(0.2820512,0,0,0.4883722,194.85326,185.4071)"
             d="M 219.20309,399.70264 A 27.577164,30.405592 0 1 1 164.04877,399.70264 A 27.577164,30.405592 0 1 1 219.20309,399.70264 z"
             sodipodi:ry="30.405592"
             sodipodi:rx="27.577164"
             sodipodi:cy="399.70264"
             sodipodi:cx="191.62593"
             id="path3165"
             style="fill:#ffffff;fill-opacity:1"
             sodipodi:type="arc" />
        </g>
      </g>
    </g>
    <path
       style="fill:#000000;fill-opacity:1;fill-rule:evenodd;stroke:#000000;stroke-width:1px;stroke-linecap:butt;stroke-linejoin:miter;stroke-opacity:1;display:inline"
       d="M 153.44217,293.6366 L 147.78531,282.32289 L 115.2584,280.90868 L 92.630986,295.05081 L 89.802559,316.26402 L 98.287841,320.50666 L 106.77312,310.60716 L 118.08683,300.70767 L 133.64318,300.70767 L 149.19953,302.12188 L 153.44217,293.6366 z"
       id="path3231" />
    <path
       style="fill:#000000;fill-opacity:1;fill-rule:evenodd;stroke:#000000;stroke-width:1.09348142px;stroke-linecap:butt;stroke-linejoin:miter;stroke-opacity:1;display:inline"
       d="M 300.474,255.47 L 293.694,244.183 L 254.709,242.772 L 254.709,242.772 L 227.59,256.88 L 224.2,278.044 L 234.369,282.276 L 244.539,272.4 L 244.539,272.4 L 258.099,262.524 L 258.099,262.524 L 276.744,262.524 L 276.744,262.524 L 295.389,263.935"
       id="path3236"
       inkscape:path-effect="#path-effect4761"
       inkscape:original-d="M 300.47365,255.46953 L 293.69373,244.18253 L 254.70922,242.77166 L 227.58954,256.8804 L 224.19958,278.04354 L 234.36945,282.27616 L 244.53934,272.40003 L 258.09918,262.52391 L 276.74395,262.52391 L 295.38872,263.93478 L 300.47365,255.46953 z" />
    <g
       id="g3244"
       transform="translate(330.92597,-22.627417)">
      <path
         sodipodi:nodetypes="ccccccccccc"
         id="path3240"
         d="M -137.17871,522.0321 L -113.13709,503.64732 L -72.124895,497.99047 L -41.012195,499.40468 L -18.384774,502.23311 L -14.142135,537.58845 L -28.284267,563.0443 L -48.083258,581.42907 L -89.095455,588.50014 L -115.96552,564.4585 L -137.17871,522.0321 z"
         style="fill:#000000;fill-opacity:1;fill-rule:evenodd;stroke:#000000;stroke-width:1px;stroke-linecap:butt;stroke-linejoin:miter;stroke-opacity:1" />
      <path
         sodipodi:nodetypes="ccccccccc"
         id="path3242"
         d="M -113.13708,548.90215 L -104.6518,527.68894 L -79.195961,514.96102 L -22.627421,513.54681 L -21.213201,527.68894 L -33.94113,557.38743 L -55.154331,572.94378 L -76.367531,577.18642 L -113.13708,548.90215 z"
         style="fill:#ec6b76;fill-opacity:1;fill-rule:evenodd;stroke:none;stroke-width:1px;stroke-linecap:butt;stroke-linejoin:miter;stroke-opacity:1" />
    </g>
  </g>
</svg>
