<?xml version="1.0" encoding="UTF-8" standalone="no"?>
<!-- Created with Inkscape (http://www.inkscape.org/) -->
<svg
   xmlns:dc="http://purl.org/dc/elements/1.1/"
   xmlns:cc="http://creativecommons.org/ns#"
   xmlns:rdf="http://www.w3.org/1999/02/22-rdf-syntax-ns#"
   xmlns:svg="http://www.w3.org/2000/svg"
   xmlns="http://www.w3.org/2000/svg"
   xmlns:xlink="http://www.w3.org/1999/xlink"
   xmlns:sodipodi="http://sodipodi.sourceforge.net/DTD/sodipodi-0.dtd"
   xmlns:inkscape="http://www.inkscape.org/namespaces/inkscape"
   width="210mm"
   height="297mm"
   id="svg2384"
   sodipodi:version="0.32"
   inkscape:version="0.46"
   sodipodi:docname="OSC2008-poster-noren.svg"
   inkscape:output_extension="org.inkscape.output.svg.inkscape">
  <defs
     id="defs3">
    <linearGradient
       inkscape:collect="always"
       id="linearGradient3230">
      <stop
         style="stop-color:#000000;stop-opacity:1;"
         offset="0"
         id="stop3232" />
      <stop
         style="stop-color:#000000;stop-opacity:0;"
         offset="1"
         id="stop3234" />
    </linearGradient>
    <inkscape:path-effect
       effect="bend_path"
       id="path-effect2435"
       bendpath="M 39.5754,188.982 C 289.723,173.775 538.078,159.989 732.445,188.982 "
       prop_scale="1"
       bendpath-nodetypes="cc" />
    <inkscape:path-effect
       effect="bend_path"
       id="path-effect2431"
       bendpath="M 39.2096,224.723 L 657.772,224.723 "
       prop_scale="1" />
    <inkscape:path-effect
       effect="bend_path"
       id="path-effect4767"
       bendpath="M 89.8026,300.708 L 153.442,300.708 "
       prop_scale="1" />
    <inkscape:path-effect
       effect="skeletal"
       id="path-effect4765"
       prop_scale="1" />
    <inkscape:path-effect
       effect="skeletal"
       id="path-effect4763"
       prop_scale="1" />
    <inkscape:path-effect
       effect="skeletal"
       id="path-effect4761"
       prop_scale="1" />
    <inkscape:path-effect
       effect="skeletal"
       id="path-effect4759"
       prop_scale="1"
       copytype="single_stretched" />
    <inkscape:path-effect
       effect="bend_path"
       id="path-effect4757"
       bendpath="M 224.2,262.524 L 300.474,262.524 "
       prop_scale="1" />
    <inkscape:path-effect
       effect="bend_path"
       id="path-effect4755"
       bendpath="M 224.2,262.524 L 300.474,262.524 "
       prop_scale="1" />
    <inkscape:path-effect
       effect="bend_path"
       id="path-effect4753"
       bendpath="M 224.2,262.524 L 300.474,262.524 "
       prop_scale="1" />
    <inkscape:path-effect
       effect="bend_path"
       id="path-effect4751"
       bendpath="M 224.2,262.524 L 300.474,262.524 "
       prop_scale="1" />
    <inkscape:path-effect
       effect="bend_path"
       id="path-effect4749"
       bendpath="M 224.2,262.524 L 300.474,262.524 "
       prop_scale="1" />
    <inkscape:path-effect
       effect="bend_path"
       id="path-effect3264"
       bendpath="M 21.2132,575.066 L 709.935,575.066 "
       prop_scale="1" />
    <inkscape:path-effect
       effect="bend_path"
       id="path-effect3262"
       bendpath="M 72.1247,777.297 L 760.847,777.297 "
       prop_scale="1" />
    <inkscape:path-effect
       effect="bend_path"
       id="path-effect3260"
       bendpath="M 107.48,669.817 L 796.202,669.817 "
       prop_scale="1" />
    <inkscape:perspective
       sodipodi:type="inkscape:persp3d"
       inkscape:vp_x="0 : 526.18109 : 1"
       inkscape:vp_y="0 : 1000 : 0"
       inkscape:vp_z="744.09448 : 526.18109 : 1"
       inkscape:persp3d-origin="372.04724 : 350.78739 : 1"
       id="perspective2390" />
    <linearGradient
       inkscape:collect="always"
       xlink:href="#linearGradient3230"
       id="linearGradient3236"
       x1="41.270902"
       y1="149.02879"
       x2="763.31316"
       y2="149.02879"
       gradientUnits="userSpaceOnUse" />
  </defs>
  <sodipodi:namedview
     inkscape:document-units="mm"
     id="base"
     pagecolor="#ffffff"
     bordercolor="#666666"
     borderopacity="1.0"
     inkscape:pageopacity="0.0"
     inkscape:pageshadow="2"
     inkscape:zoom="0.70710678"
     inkscape:cx="222.15458"
     inkscape:cy="554.14069"
     inkscape:current-layer="layer2"
     showgrid="false"
     inkscape:window-width="1165"
     inkscape:window-height="948"
     inkscape:window-x="82"
     inkscape:window-y="11" />
  <metadata
     id="metadata4">
    <rdf:RDF>
      <cc:Work
         rdf:about="">
        <dc:format>image/svg+xml</dc:format>
        <dc:type
           rdf:resource="http://purl.org/dc/dcmitype/StillImage" />
      </cc:Work>
    </rdf:RDF>
  </metadata>
  <g
     inkscape:groupmode="layer"
     id="layer2"
     inkscape:label="path"
     style="display:inline">
    <path
       style="fill:#9f02ba;fill-rule:evenodd;stroke:none;stroke-width:1px;stroke-linecap:butt;stroke-linejoin:miter;stroke-opacity:1;fill-opacity:1"
       d="M 15.556349,32.714203 L 19.798989,93.525384 L 19.79899,174.13556 L 11.313709,253.33152 L 56.568543,247.67466 L 173.94827,243.43202 L 190.91883,157.16499 L 183.84776,35.54263 L 195.16147,34.128416 L 197.9899,137.366 L 193.74726,202.41983 L 183.84777,243.43202 L 278.60007,237.77517 L 370.52395,240.6036 L 379.00923,137.366 L 370.52395,52.513192 L 370.52395,34.128416 L 383.25188,34.128416 L 388.90874,104.8391 L 386.08031,185.44927 L 381.83766,243.43203 L 459.61941,240.6036 L 537.40115,240.6036 L 548.71486,171.30713 L 552.9575,89.282745 L 545.88644,32.714202 L 561.44279,31.299989 L 565.68543,165.65028 L 552.95751,242.01781 L 725.49156,247.67466 L 738.21948,167.06449 L 733.97684,87.868532 L 729.7342,31.299988 L 15.556349,32.714203 z"
       id="path2565"
       sodipodi:nodetypes="cccccccccccccccccccccccccccccccccc" />
    <path
       style="fill:#c60000;fill-opacity:1;fill-rule:evenodd;stroke:#000000;stroke-width:17.71653557;stroke-linecap:butt;stroke-linejoin:miter;stroke-miterlimit:4;stroke-dasharray:none;stroke-opacity:1"
       d="M 77.781751,569.42593 C 77.678553,559.01469 88.23373,552.03692 98.651156,545.73908 C 101.7199,538.64899 130.14686,528.2087 130.39521,535.17068 C 125.90336,549.87541 84.868062,585.22889 88.537285,601.08052 C 89.459568,609.53582 79.641317,636.69612 89.997014,636.58339 C 98.250925,633.50141 102.41217,606.47325 106.9647,598.35348 C 112.68438,587.08766 125.72768,570.32188 137.17872,564.45847 C 132.22307,588.66124 139.15747,583.90633 130.10765,606.88489 C 132.97774,621.75553 127.07368,656.78176 127.42844,674.70884 C 130.44172,683.12749 133.66202,658.28121 136.76188,652.78734 C 141.4492,637.18798 149.2907,615.18544 157.88086,601.52845 C 167.85035,582.3709 183.8483,574.32349 182.81746,593.29674 C 186.85029,615.09671 179.34111,649.74833 178.1909,671.93872 C 189.68857,677.91272 199.1737,644.9047 202.47502,633.47169 C 203.66041,620.40573 210.80659,589.89658 216.04112,608.21405 C 218.1235,620.57514 218.19077,671.99061 230.39306,669.11029 C 238.1259,657.52838 250.02311,611.06245 251.73002,596.98538 C 259.712,604.69679 270.87059,645.03336 269.93125,656.20949 C 270.74005,666.83932 261.7545,681.37767 250.31359,687.49732 C 240.46832,696.31212 231.50765,705.71519 228.2669,718.9221 C 222.55262,728.64278 221.06339,738.66679 225.77448,749.13594 C 219.75606,762.57172 238.36755,718.42421 237.7394,708.79245 C 237.76259,697.02988 267.48258,692.32449 274.35744,684.66668 C 286.36822,692.71081 267.92986,723.96236 264.00345,732.34115 C 257.94069,743.57512 255.82609,744.6464 259.53409,758.56851 C 254.5081,768.4183 255.26997,789.59745 255.1965,779.97133 C 255.17323,771.02401 269.32402,728.36877 277.72812,728.71981 C 282.11078,740.80948 276.57271,775.9989 288.88623,782.83813 C 297.1198,791.84342 305.53824,796.47985 317.75737,798.12104 C 331.40439,802.23899 340.76801,806.95255 354.99395,802.60856 C 365.11412,799.33953 387.95558,784.63954 391.72142,771.95973 C 402.29833,753.36182 405.77068,749.25287 422.33234,735.06755 C 428.14859,723.34441 452.02053,729.63529 461.71084,729.88856 C 478.25406,730.13868 486.73912,748.62623 498.88448,758.1224 C 507.80305,767.44468 504.76983,790.12206 518.98313,792.00622 C 528.68766,794.54723 539.22904,803.79135 547.32312,793.43269 C 556.13076,785.89564 569.35947,781.64854 575.20344,771.90605 C 579.33699,759.85806 580.58211,745.91232 593.02244,739.32203 C 602.88094,733.68178 606.67454,724.14231 608.70759,713.47095 C 613.4071,697.31363 621.43946,682.34516 626.49658,666.28186 C 639.45719,665.43538 652.12622,666.00942 663.47071,673.03654 C 673.19791,676.43704 683.14571,666.86347 692.96466,664.86768 C 699.3636,654.77945 710.00181,646.23152 708.02735,633.10089 C 706.63404,623.51131 715.05199,609.66164 704.57926,604.01439 C 680.00945,583.8443 653.38255,565.39013 634.98187,539.00269 C 632.87748,523.02104 630.22799,507.17848 623.66815,492.33362 C 613.30831,515.55099 605.96715,540.46731 588.84028,559.87613 C 577.0136,581.02673 553.1801,590.56954 536.5189,606.94107 C 531.03624,617.07819 521.46775,626.23899 525.52842,638.65652 C 523.94158,651.10303 539.49748,654.3036 546.51913,662.10712 C 554.12649,666.54218 567.73887,665.22276 575.18147,661.02844 C 584.03857,651.40091 591.9594,643.2883 583.9749,660.911 C 578.57695,681.15208 566.41383,705.73477 557.20016,724.2646 C 546.45496,718.98434 533.24561,720.5779 528.12025,708.78389 C 520.57317,694.79306 503.01571,682.12671 490.17844,673.18228 C 476.34741,659.78468 469.89469,662.74722 452.54833,656.3824 C 439.1974,659.99625 418.56747,660.9589 406.21036,666.19701 C 396.10012,680.35153 376.33798,676.753 368.89721,692.37533 C 371.03629,703.83847 352.88346,710.84238 351.41166,699.37314 C 347.43889,677.73094 345.45159,655.98747 347.71593,634.02715 C 350.1263,627.55276 327.60705,582.23335 336.72965,588.35415 C 353.31487,598.45108 348.78306,594.97133 404.31756,610.27149 C 418.59988,613.97 385.10416,569.00826 388.87874,559.85941 C 389.47395,533.33171 445.43968,597.83923 455.19945,600.35331 C 464.08897,605.83089 428.14762,545.87736 426.5758,536.13296 C 426.5772,524.3442 479.84383,564.41135 494.48238,567.33617 C 508.43312,569.77796 499.08522,562.70981 498.6552,550.29002 C 499.01314,540.18452 458.07721,522.42169 452.50154,514.40211 C 439.73734,505.14677 423.90479,495.8046 439.69665,497.99046 C 452.68842,498.37816 510.49788,513.62311 520.87984,523.43304 C 529.8746,528.96621 548.87263,544.71026 550.41516,527.88668 C 552.89548,518.64205 541.88185,502.34344 520.59615,486.91576 C 508.67386,476.09444 488.43389,465.69774 472.17008,461.47408 C 466.04123,457.56918 416.02818,453.42253 420.55588,450.64885 C 435.69547,445.52231 520.51426,451.05096 535.98694,452.73563 C 532.31355,442.55326 522.74504,428.47601 510.35075,424.56222 C 496.87374,416.79986 489.26849,411.47402 472.55889,412.90779 C 455.91451,409.72023 430.88552,410.56948 414.41418,414.32074 C 416.33009,410.20297 443.51007,388.15227 462.44783,377.78233 C 475.43003,372.41881 492.44338,366.22334 511.94531,349.49804 C 531.44724,332.77274 482.27997,343.2777 462.0943,343.84119 C 442.84316,342.30995 425.73455,353.91647 407.93309,359.62547 C 389.25956,364.5064 386.00346,361.48054 365.986,362.42539 C 321.9589,374.41297 282.17443,384.63278 242.38997,394.85259 C 202.6055,405.0724 186.86267,436.50541 142.83557,448.49299 C 128.36745,450.09832 78.56303,460.00646 65.00684,464.50415 C 54.222488,473.08471 36.641651,469.96308 33.216834,484.87609 C 28.651725,497.76754 36.534957,497.19666 42.78529,488.397 C 57.659061,479.17995 93.767777,467.7596 111.72287,468.29199 C 115.77319,474.63413 131.90926,493.16571 114.49022,491.60311 C 107.54306,487.22334 105.52437,495.98953 89.747078,496.99992 C 75.31586,501.89906 45.556988,520.74642 36.769557,531.93158 C 35.78213,540.6146 56.304188,533.18385 63.740303,520.96622 C 72.473519,507.5745 85.342795,519.08719 103.23759,513.54682 C 90.366487,527.63272 88.649604,523.09152 79.033384,539.29544 C 78.89133,552.39902 72.599252,551.09301 63.350712,593.5792 C 81.764101,563.35371 96.468435,562.93389 90.509673,551.04115"
       sodipodi:nodetypes="cccccccccccccccccccccccccccccccccccccccccccccccccccccccccccccccccccccccccccccccccccsccccccccccccc"
       id="path2488" />
    <path
       sodipodi:type="arc"
       style="fill:#000000;fill-opacity:1"
       id="path2381"
       sodipodi:cx="191.62593"
       sodipodi:cy="399.70264"
       sodipodi:rx="27.577164"
       sodipodi:ry="30.405592"
       d="M 219.20309,399.70264 A 27.577164,30.405592 0 1 1 164.04877,399.70264 A 27.577164,30.405592 0 1 1 219.20309,399.70264 z"
       transform="matrix(1,0,0,1.1395349,-7.0710678,-54.358247)" />
    <g
       id="g3207">
      <g
         transform="translate(2.0285276e-6,8.2715815e-8)"
         id="g3175">
        <path
           sodipodi:type="arc"
           style="fill:#000000;fill-opacity:1;display:inline"
           id="path3169"
           sodipodi:cx="191.62593"
           sodipodi:cy="399.70264"
           sodipodi:rx="27.577164"
           sodipodi:ry="30.405592"
           d="M 219.20309,399.70264 A 27.577164,30.405592 0 1 1 164.04877,399.70264 A 27.577164,30.405592 0 1 1 219.20309,399.70264 z"
           transform="matrix(2.8461539,0,0,2.4883721,-388.41918,-594.19916)" />
        <path
           sodipodi:type="arc"
           style="fill:#ffffff;fill-opacity:1;display:inline"
           id="path3173"
           sodipodi:cx="191.62593"
           sodipodi:cy="399.70264"
           sodipodi:rx="27.577164"
           sodipodi:ry="30.405592"
           d="M 219.20309,399.70264 A 27.577164,30.405592 0 1 1 164.04877,399.70264 A 27.577164,30.405592 0 1 1 219.20309,399.70264 z"
           transform="matrix(2.2820513,0,0,2.1395349,-280.3225,-454.0609)" />
      </g>
      <g
         transform="translate(7.0710732,-16.970561)"
         id="g3179">
        <path
           sodipodi:type="arc"
           style="fill:#000000;fill-opacity:1"
           id="path3157"
           sodipodi:cx="191.62593"
           sodipodi:cy="399.70264"
           sodipodi:rx="27.577164"
           sodipodi:ry="30.405592"
           d="M 219.20309,399.70264 A 27.577164,30.405592 0 1 1 164.04877,399.70264 A 27.577164,30.405592 0 1 1 219.20309,399.70264 z"
           transform="matrix(1,0,0,1.1395349,-9.1923809,-45.16588)" />
        <path
           sodipodi:type="arc"
           style="fill:#ffffff;fill-opacity:1;display:inline"
           id="path3167"
           sodipodi:cx="191.62593"
           sodipodi:cy="399.70264"
           sodipodi:rx="27.577164"
           sodipodi:ry="30.405592"
           d="M 219.20309,399.70264 A 27.577164,30.405592 0 1 1 164.04877,399.70264 A 27.577164,30.405592 0 1 1 219.20309,399.70264 z"
           transform="matrix(0.4102563,0,0,0.5581396,115.83861,176.61274)"
           inkscape:transform-center-x="67.882244"
           inkscape:transform-center-y="16.970566" />
      </g>
    </g>
    <g
       id="g3195">
      <path
         transform="matrix(3.0769232,0,0,2.744186,-290.5121,-729.68268)"
         d="M 219.20309,399.70264 A 27.577164,30.405592 0 1 1 164.04877,399.70264 A 27.577164,30.405592 0 1 1 219.20309,399.70264 z"
         sodipodi:ry="30.405592"
         sodipodi:rx="27.577164"
         sodipodi:cy="399.70264"
         sodipodi:cx="191.62593"
         id="path3171"
         style="fill:#000000;fill-opacity:1;display:inline"
         sodipodi:type="arc" />
      <path
         transform="matrix(2.4871795,0,0,2.3023255,-178.20903,-548.12016)"
         d="M 219.20309,399.70264 A 27.577164,30.405592 0 1 1 164.04877,399.70264 A 27.577164,30.405592 0 1 1 219.20309,399.70264 z"
         sodipodi:ry="30.405592"
         sodipodi:rx="27.577164"
         sodipodi:cy="399.70264"
         sodipodi:cx="191.62593"
         id="path3183"
         style="fill:#ffffff;fill-opacity:1;display:inline"
         sodipodi:type="arc" />
    </g>
    <path
       sodipodi:type="arc"
       style="fill:#000000;fill-opacity:1"
       id="path3163"
       sodipodi:cx="191.62593"
       sodipodi:cy="399.70264"
       sodipodi:rx="27.577164"
       sodipodi:ry="30.405592"
       d="M 219.20309,399.70264 A 27.577164,30.405592 0 1 1 164.04877,399.70264 A 27.577164,30.405592 0 1 1 219.20309,399.70264 z"
       transform="matrix(1.1538461,0,0,1.0465117,37.694242,-40.511152)" />
    <path
       sodipodi:type="arc"
       style="fill:#ffffff;fill-opacity:1"
       id="path3165"
       sodipodi:cx="191.62593"
       sodipodi:cy="399.70264"
       sodipodi:rx="27.577164"
       sodipodi:ry="30.405592"
       d="M 219.20309,399.70264 A 27.577164,30.405592 0 1 1 164.04877,399.70264 A 27.577164,30.405592 0 1 1 219.20309,399.70264 z"
       transform="matrix(0.3589743,0,0,0.6046513,177.99148,136.80873)"
       inkscape:transform-center-x="59.396957"
       inkscape:transform-center-y="18.384814" />
    <path
       style="fill:#000000;fill-opacity:1;fill-rule:evenodd;stroke:#000000;stroke-width:1px;stroke-linecap:butt;stroke-linejoin:miter;stroke-opacity:1;display:inline"
       d="M 153.44217,293.6366 L 147.78531,282.32289 L 115.2584,280.90868 L 92.630986,295.05081 L 89.802559,316.26402 L 98.287841,320.50666 L 106.77312,310.60716 L 118.08683,300.70767 L 133.64318,300.70767 L 149.19953,302.12188 L 153.44217,293.6366 z"
       id="path3231" />
    <path
       style="fill:#000000;fill-opacity:1;fill-rule:evenodd;stroke:#000000;stroke-width:1.09348142px;stroke-linecap:butt;stroke-linejoin:miter;stroke-opacity:1;display:inline"
       d="M 300.474,255.47 L 293.694,244.183 L 254.709,242.772 L 227.59,256.88 L 224.2,278.044 L 234.369,282.276 L 244.539,272.4 L 244.539,272.4 L 258.099,262.524 L 258.099,262.524 L 276.744,262.524 L 276.744,262.524 L 295.389,263.935"
       id="path3236"
       inkscape:path-effect="#path-effect4761"
       inkscape:original-d="M 300.47365,255.46953 L 293.69373,244.18253 L 254.70922,242.77166 L 227.58954,256.8804 L 224.19958,278.04354 L 234.36945,282.27616 L 244.53934,272.40003 L 258.09918,262.52391 L 276.74395,262.52391 L 295.38872,263.93478 L 300.47365,255.46953 z" />
    <g
       id="g3244"
       transform="translate(330.92597,-22.627417)">
      <path
         sodipodi:nodetypes="ccccccccccc"
         id="path3240"
         d="M -137.17871,522.0321 L -113.13709,503.64732 L -72.124895,497.99047 L -41.012195,499.40468 L -18.384774,502.23311 L -14.142135,537.58845 L -28.284267,563.0443 L -48.083258,581.42907 L -89.095455,588.50014 L -115.96552,564.4585 L -137.17871,522.0321 z"
         style="fill:#000000;fill-opacity:1;fill-rule:evenodd;stroke:#000000;stroke-width:1px;stroke-linecap:butt;stroke-linejoin:miter;stroke-opacity:1" />
      <path
         sodipodi:nodetypes="ccccccccc"
         id="path3242"
         d="M -113.13708,548.90215 L -104.6518,527.68894 L -79.195961,514.96102 L -22.627421,513.54681 L -21.213201,527.68894 L -33.94113,557.38743 L -55.154331,572.94378 L -76.367531,577.18642 L -113.13708,548.90215 z"
         style="fill:#ec6b76;fill-opacity:1;fill-rule:evenodd;stroke:none;stroke-width:1px;stroke-linecap:butt;stroke-linejoin:miter;stroke-opacity:1" />
    </g>
    <path
       transform="translate(-22.627417,-5.6568543)"
       style="font-size:40px;font-style:normal;font-weight:normal;line-height:125%;fill:#ffffff;fill-opacity:1;stroke:none;stroke-width:1px;stroke-linecap:butt;stroke-linejoin:miter;stroke-opacity:1;font-family:Bitstream Vera Sans"
       d="M 120.03594,162.96541 C 120.32776,166.70406 120.54457,170.20427 120.68637,173.46605 C 120.828,176.72788 120.90625,179.90005 120.9211,182.98258 C 120.99796,184.93259 120.80903,186.84687 120.35428,188.72543 C 119.89938,190.604 119.10535,192.00168 117.97218,192.91847 C 117.32369,193.27031 116.61382,193.57 115.84256,193.81756 C 115.07114,194.06512 114.23731,194.22389 113.34107,194.29387 C 111.62137,194.42814 109.65972,194.35585 107.45611,194.07701 C 105.25236,193.79818 103.45153,193.37448 102.05361,192.80591 C 101.27003,192.41528 100.58905,191.88532 100.01066,191.21603 C 99.432148,190.54675 99.03601,189.80722 98.82224,188.99742 C 98.339026,189.56043 97.756999,190.05676 97.076156,190.48643 C 96.395199,190.9161 95.717945,191.15723 95.044391,191.20982 C 94.597089,191.24475 94.239565,191.23501 93.971816,191.18061 C 93.70396,191.12623 93.414524,191.03587 93.103508,190.90955 C 91.941694,190.47315 90.113139,189.69439 87.617838,188.57327 C 85.122442,187.45216 83.184541,186.71959 81.804129,186.37555 C 80.189513,187.85522 78.116412,189.48408 75.58482,191.26215 C 73.053158,193.04024 71.076313,193.98479 69.65428,194.09582 C 68.234014,194.20671 67.025644,193.66145 66.029167,192.46004 C 65.032637,191.25864 64.481864,189.98524 64.376845,188.63984 C 64.318384,187.89139 64.398267,187.22672 64.616494,186.64583 C 64.834672,186.06496 65.265968,185.56111 65.910384,185.13428 C 66.604394,184.40239 68.027926,183.36926 70.180987,182.03489 C 72.333987,180.70054 73.895595,179.50695 74.865814,178.4541 C 72.933312,178.7556 71.055518,179.03399 69.232427,179.28927 C 67.409276,179.54458 65.675329,179.73643 64.03058,179.86484 C 62.685165,179.9699 61.696772,179.59572 61.0654,178.7423 C 60.433986,177.88891 60.068618,176.82602 59.969296,175.55363 C 59.870076,174.2831 60.074885,173.28957 60.583724,172.57302 C 61.092522,171.85652 61.979283,171.41124 63.244009,171.23717 C 65.164765,170.78602 67.840391,170.37003 71.270893,169.98922 C 74.701333,169.60845 76.940487,169.37715 77.98836,169.29531 C 77.95326,168.84626 77.939867,168.43361 77.94818,168.05735 C 77.956418,167.68114 77.940103,167.23106 77.899235,166.70711 C 75.143431,167.07291 72.593945,167.42257 70.250772,167.75609 C 67.907537,168.08967 65.726435,168.33527 63.707459,168.49288 C 62.362044,168.59795 61.415457,168.27698 60.867695,167.52997 C 60.319892,166.78302 59.99633,165.77334 59.897007,164.50094 C 59.797787,163.23042 59.949385,162.2787 60.351799,161.64575 C 60.754173,161.01287 61.340547,160.57221 62.110924,160.32378 C 62.881257,160.07541 63.959302,159.91594 65.345063,159.84536 C 66.730774,159.77486 67.610755,159.72497 67.98501,159.69572 C 67.811917,159.40806 67.431496,158.62873 66.843748,157.35772 C 66.255946,156.08679 65.941677,155.19026 65.900939,154.66813 C 65.842477,153.91972 66.03271,153.22761 66.471641,152.5918 C 66.910519,151.95608 67.49251,151.45929 68.217618,151.10143 L 55.819395,152.74716 C 55.861264,154.24812 55.940572,155.74613 56.05732,157.24117 C 56.174034,158.73629 56.319984,160.6056 56.495168,162.8491 C 56.757832,166.21353 57.28725,171.30648 58.083424,178.12797 C 58.879562,184.9495 59.411902,190.07988 59.680446,193.51911 C 59.820532,195.31358 59.556223,196.74474 58.88752,197.81261 C 58.218778,198.88047 57.024607,199.48154 55.305004,199.6158 C 52.911762,199.80265 51.215717,199.52137 50.216863,198.77197 C 49.217989,198.02255 48.553206,196.4945 48.222512,194.1878 C 47.57391,190.70294 47.084952,187.09266 46.755637,183.35695 C 46.426309,179.62127 46.011145,175.02722 45.510145,169.5748 C 45.294066,166.80737 45.132046,164.73224 45.024086,163.34939 C 44.916116,161.96661 44.754096,159.89148 44.538027,157.12399 C 44.018506,150.47009 43.658461,144.89419 43.457891,140.39629 C 43.257314,135.8985 43.324508,131.45459 43.659472,127.06455 C 43.732211,125.10293 44.183633,123.65716 45.013739,122.72722 C 45.843835,121.79743 47.19354,121.25953 49.062858,121.1135 C 50.483086,121.00269 51.675141,121.09787 52.639027,121.39905 C 53.602887,121.70038 54.246691,122.47751 54.570442,123.73045 C 55.460903,123.5857 57.561316,123.2711 60.871687,122.78666 C 64.182017,122.30237 66.734424,121.99014 68.528916,121.84996 C 70.323351,121.70992 71.94385,121.75283 73.390417,121.97867 C 74.836917,122.20466 75.978167,122.84883 76.81417,123.91118 C 77.246797,124.63049 77.65328,126.46109 78.03362,129.40299 C 78.413884,132.34502 78.720766,135.31109 78.954267,138.30119 C 79.08849,140.02087 79.182162,141.46174 79.235285,142.6238 C 79.288328,143.78596 79.358626,144.92744 79.446178,146.04825 C 79.34432,147.63758 78.993093,148.92585 78.392498,149.91305 C 77.791826,150.90034 76.793006,151.59819 75.396037,152.00659 C 75.75382,152.73171 76.288559,153.79974 77.000255,155.21068 C 77.711878,156.62171 78.246617,157.68974 78.604474,158.41478 C 79.347045,158.28153 80.110832,158.18425 80.895837,158.12292 C 81.68076,158.06167 82.671092,157.98435 83.866837,157.89096 C 83.975578,157.35539 84.343634,156.04744 84.971006,153.96712 C 85.598288,151.88687 86.257031,150.44419 86.947238,149.63908 C 86.261895,149.54203 85.702192,149.35983 85.268125,149.09247 C 84.833968,148.8252 84.44684,148.44219 84.10674,147.94342 C 83.431965,147.01723 82.92974,145.40118 82.600065,143.09528 C 82.270304,140.78948 82.006174,138.36509 81.807673,135.82211 C 81.62662,133.50379 81.495723,131.35093 81.414982,129.36351 C 81.334159,127.37623 81.41375,125.50813 81.653757,123.75922 C 81.807147,121.86661 82.340719,120.50855 83.254474,119.68504 C 84.168143,118.86168 85.597076,118.37406 87.541278,118.22219 C 88.512395,118.14644 89.36518,118.23046 90.099636,118.47425 C 90.833992,118.7182 91.459809,119.27083 91.97709,120.13215 C 94.277888,119.72668 96.601833,119.37581 98.94893,119.07953 C 101.29591,118.78341 103.66513,118.54195 106.0566,118.35516 C 108.59945,118.15669 110.6396,118.50523 112.17707,119.40078 C 113.71438,120.29647 114.91824,121.98951 115.78864,124.47991 C 116.21637,126.10138 116.57224,127.76604 116.85627,129.47391 C 117.14015,131.18191 117.42174,133.34183 117.70105,135.95369 C 118.06772,139.68653 118.43032,143.60742 118.78887,147.71638 C 119.14726,151.82544 119.56295,156.90845 120.03594,162.96541 L 120.03594,162.96541 z M 105.01771,129.60756 L 104.52187,126.15025 L 92.333388,127.5537 L 92.483658,130.92503 L 105.01771,129.60756 z M 106.28133,140.00522 L 105.78528,136.54518 L 93.035458,137.99245 L 93.315741,141.58229 L 106.28133,140.00522 z M 67.694294,132.8605 L 67.328253,129.61896 L 54.923789,131.14947 L 55.056741,134.29901 L 67.694294,132.8605 z M 108.45136,166.3521 C 108.12447,162.16626 107.83435,158.69152 107.58099,155.92786 C 107.3275,153.16428 107.09275,150.39875 106.87675,147.63124 C 105.75582,147.7188 103.51859,147.96878 100.16503,148.38118 C 96.811355,148.79367 94.274737,149.06702 92.555171,149.20123 C 93.171413,149.37907 93.839247,149.74063 94.558675,150.28591 C 95.277994,150.83128 95.661056,151.40333 95.707861,152.00205 C 95.754412,152.59903 95.601811,153.53201 95.250056,154.801 C 94.89819,156.07006 94.69655,156.85719 94.645134,157.16238 C 94.942635,157.13918 95.445468,157.0811 96.153633,156.98812 C 96.861686,156.89522 97.439365,156.8313 97.886669,156.79634 C 99.60623,156.66211 100.86507,156.8834 101.66318,157.4602 C 102.46117,158.03707 102.93025,159.22272 103.07042,161.01715 C 103.16386,162.21471 102.93603,163.15449 102.38692,163.83648 C 101.8377,164.51853 100.96527,164.90622 99.769627,164.99955 C 98.796577,165.07555 97.355711,165.16922 95.447026,165.28057 C 93.538229,165.39197 92.134786,165.48272 91.236693,165.55282 C 90.712724,165.59375 90.301531,165.62586 90.003112,165.64913 C 89.704593,165.67247 89.2934,165.70457 88.769531,165.74545 L 88.858656,168.33364 L 95.140198,167.8432 C 96.410689,167.74403 97.475867,167.66086 98.335734,167.5937 C 99.195485,167.5266 100.07738,167.4954 100.98143,167.50009 C 102.47645,167.38339 103.62114,167.59522 104.4155,168.13559 C 105.20972,168.67601 105.66523,169.69375 105.78203,171.18881 C 105.93376,173.13299 105.50953,174.44486 104.50935,175.12443 C 103.50904,175.80404 101.962,176.22558 99.868211,176.38904 C 98.597606,176.48826 96.746003,176.614 94.313399,176.76627 C 91.880686,176.91857 90.065593,177.04146 88.868116,177.13494 L 87.523636,177.23991 L 87.162219,178.39766 C 89.078087,178.84866 91.149153,179.36376 93.375421,179.94294 C 95.601582,180.52216 97.261911,181.06932 98.356411,181.58443 C 98.667422,181.71076 98.983878,181.91196 99.305781,182.18803 C 99.627565,182.46412 99.918286,182.81793 100.17794,183.24946 C 100.58021,182.61564 101.04989,182.12716 101.58701,181.78401 C 102.124,181.44089 102.72933,181.24302 103.403,181.19041 C 104.07655,181.13783 105.11791,181.22596 106.52709,181.45478 C 107.93613,181.68363 108.83364,181.85829 109.21963,181.97875 C 109.1707,179.42416 109.083,176.85422 108.95653,174.26893 C 108.82991,171.68368 108.66152,169.04474 108.45136,166.3521 L 108.45136,166.3521 z M 68.160122,140.27349 L 55.419067,141.83303 L 55.569337,145.20437 L 68.422874,143.6388 L 68.160122,140.27349 z M 211.58151,118.22894 C 211.72212,120.174 211.451,121.62235 210.76815,122.574 C 210.08514,123.52578 208.80861,124.06927 206.93858,124.20448 C 203.1234,124.48051 199.43663,124.70956 195.87825,124.89163 C 192.31973,125.07382 188.85218,125.21174 185.47556,125.3054 C 185.44478,126.96177 185.43412,128.63545 185.4436,130.32643 C 185.45296,132.01753 185.44007,134.18062 185.40493,136.81571 C 187.5745,136.65882 189.38845,136.52761 190.8468,136.42207 C 192.30502,136.31663 193.71257,136.29009 195.06943,136.34243 C 198.99171,136.50854 201.57897,137.44905 202.83122,139.16397 C 204.08332,140.87899 204.9786,143.89706 205.51705,148.21819 C 205.79213,150.98146 206.0147,153.27805 206.18479,155.10798 C 206.35471,156.93798 206.50465,158.75058 206.63458,160.54579 C 206.75895,162.26617 206.86738,164.02532 206.95987,165.82324 C 207.05222,167.62121 207.15842,169.86977 207.27847,172.56893 C 207.25213,173.24644 207.27888,174.91695 207.35872,177.58048 C 207.43841,180.24403 207.38269,182.3354 207.19159,183.85461 C 206.8631,185.53246 206.21149,186.65081 205.23678,187.20965 C 204.26191,187.7685 202.83945,188.11556 200.96941,188.25083 C 199.32386,188.36986 197.94091,187.96228 196.82055,187.02811 C 195.70006,186.09394 195.19536,184.83343 195.30644,183.24657 C 188.30587,184.20458 181.50496,185.05405 174.90369,185.795 C 168.30233,186.53595 161.82303,187.13635 155.46577,187.59621 C 152.92174,187.78023 150.64633,187.77547 148.63955,187.58191 C 146.63273,187.38837 145.06819,186.8053 143.94591,185.8327 C 142.3474,184.52005 141.24463,182.26923 140.63762,179.08022 C 140.03059,175.89123 139.58639,172.35174 139.30501,168.46174 C 138.87751,162.55191 138.5991,157.40233 138.46979,153.01299 C 138.34045,148.62371 138.56761,144.75294 139.15126,141.40066 C 139.46524,139.4981 140.07219,138.27008 140.97212,137.7166 C 141.87202,137.16323 143.36935,136.81075 145.46411,136.65917 C 146.81007,136.56187 147.99906,136.88938 149.03108,137.64173 C 150.06307,138.39417 150.70534,139.47537 150.9579,140.88534 L 157.30571,139.74875 L 157.32779,127.56728 C 154.93351,127.74053 151.12921,128.16579 145.91487,128.84307 C 140.70051,129.52047 136.70901,129.95928 133.94037,130.15949 C 131.77075,130.31649 130.31698,129.97049 129.57907,129.12149 C 128.84115,128.27261 128.39108,126.72681 128.22886,124.48407 C 128.099,122.6889 128.45715,121.40315 129.30331,120.62682 C 130.14948,119.85062 131.5022,119.31997 133.36148,119.03487 C 135.14059,118.68228 137.0561,118.3941 139.108,118.17033 C 141.15988,117.94671 143.67613,117.65179 146.65676,117.28558 C 151.05462,116.74172 155.58984,116.28195 160.26244,115.90625 C 164.93498,115.53069 169.81437,115.15893 174.90061,114.79094 C 179.53931,114.45547 183.41057,114.17544 186.5144,113.95086 C 189.6181,113.72642 192.78436,113.57266 196.01316,113.48957 C 196.61029,113.44645 198.06993,113.35968 200.39209,113.22927 C 202.7141,113.09901 204.55354,113.06004 205.91042,113.11236 C 207.71641,113.13234 209.07929,113.52254 209.99906,114.28299 C 210.91867,115.04358 211.44616,116.35889 211.58151,118.22894 L 211.58151,118.22894 z M 173.90981,126.0291 L 168.86105,126.3943 L 168.7106,138.36201 L 174.07193,137.63548 C 174.03762,135.08069 173.99571,132.94038 173.94619,131.21455 C 173.89658,129.48883 173.88445,127.76035 173.90981,126.0291 L 173.90981,126.0291 z M 193.68747,149.97712 C 193.58463,148.55631 193.14035,147.61086 192.35464,147.14078 C 191.5688,146.67077 190.46549,146.48714 189.0447,146.58987 C 188.29587,146.64408 187.71602,146.68602 187.30517,146.7157 C 186.89419,146.74547 186.31435,146.78741 185.56563,146.84153 C 185.54486,147.59576 185.56426,148.38423 185.62383,149.20693 C 185.68329,150.02971 185.75631,151.03919 185.84289,152.23536 L 185.91601,153.24621 C 185.97012,153.99502 186.06169,154.74063 186.19072,155.48305 C 186.31963,156.22552 186.60875,156.5805 187.05808,156.54797 C 187.35753,156.52634 188.43804,156.12828 190.29961,155.35381 C 192.16106,154.5794 193.34492,154.06188 193.85118,153.80126 C 193.80779,153.20227 193.78453,152.62062 193.78141,152.05629 C 193.77817,151.49204 193.74685,150.79898 193.68747,149.97712 L 193.68747,149.97712 z M 194.57347,163.78646 C 192.32085,164.85266 190.13274,165.78199 188.00915,166.57445 C 185.88544,167.36696 184.00088,167.82271 182.35545,167.94172 C 179.51188,168.14743 177.55857,166.8788 176.49553,164.13583 C 175.43239,161.3929 174.7737,158.26363 174.51944,154.74801 C 174.44357,153.69976 174.38649,152.65057 174.34821,151.60046 C 174.30985,150.55041 174.27674,149.31224 174.24888,147.88594 L 168.08508,148.4447 C 167.84871,151.3955 167.5248,154.70921 167.11337,158.38584 C 166.70186,162.06252 166.17945,164.71316 165.54615,166.33777 C 164.87845,167.5133 164.17363,168.42896 163.43169,169.08476 C 162.68969,169.74061 161.75804,170.10908 160.63673,170.19017 C 158.98939,170.30935 157.55524,169.98075 156.33427,169.20437 C 155.11325,168.42803 154.44859,167.29108 154.34029,165.7935 C 154.28623,165.04658 154.32531,164.29243 154.45752,163.53107 C 154.58968,162.76976 154.7649,161.81668 154.98319,160.67182 C 155.23853,158.99929 155.4966,157.36417 155.7574,155.76645 C 156.01816,154.1688 156.32311,152.15394 156.67226,149.72187 L 150.55183,150.84201 C 150.51201,154.45418 150.54168,157.98602 150.64083,161.43754 C 150.73994,164.88912 150.91395,168.33525 151.16285,171.77594 C 151.35768,174.46973 151.77851,176.13147 152.42532,176.76118 C 153.07208,177.39091 154.81723,177.60293 157.66078,177.39723 C 163.49572,176.97517 169.47051,176.41126 175.58516,175.7055 C 181.69973,174.99977 188.14683,174.21444 194.9265,173.34951 C 194.87769,172.67563 194.79085,171.21508 194.666,168.96785 C 194.54102,166.72066 194.51017,164.99353 194.57347,163.78646 L 194.57347,163.78646 z M 258.06623,151.32969 C 258.13876,152.45165 257.78962,153.45084 257.01882,154.32729 C 256.24794,155.20379 255.30156,155.67831 254.17967,155.75085 C 253.58031,155.78964 253.01165,155.71404 252.4737,155.52404 C 251.93569,155.33409 251.46729,155.06392 251.06851,154.71354 L 241.64723,146.75495 C 241.50222,146.83959 241.3589,146.9429 241.21727,147.06487 C 241.07559,147.18691 240.96731,147.25034 240.89242,147.25515 L 244.57392,158.85476 C 244.58347,159.00279 244.61425,159.18795 244.66627,159.41026 C 244.71824,159.63261 244.75635,159.93106 244.78061,160.30563 C 244.84831,161.35265 244.47805,162.31606 243.66983,163.19585 C 242.86157,164.07568 241.93395,164.54944 240.88697,164.61715 C 239.76502,164.68973 238.7471,164.34181 237.83318,163.57337 C 236.91923,162.80498 236.42841,161.89726 236.3607,160.85024 C 236.34615,160.62551 236.34867,160.38085 236.36827,160.11625 C 236.38784,159.8517 236.42788,159.60553 236.4884,159.37774 L 238.53254,147.40779 C 238.37967,147.34248 238.24463,147.27599 238.12743,147.2083 C 238.01019,147.14069 237.9117,147.07183 237.83196,147.00172 L 229.51443,156.10769 C 229.08915,156.51138 228.622,156.84205 228.11299,157.09973 C 227.60395,157.35745 227.08723,157.50326 226.56282,157.53715 C 225.36598,157.61459 224.33011,157.28709 223.45521,156.55466 C 222.5803,155.82228 222.10656,154.89511 222.034,153.77316 C 221.96131,152.64944 222.18292,151.714 222.69882,150.96683 C 223.21472,150.21972 223.9889,149.69992 225.02137,149.40741 L 236.58482,145.16678 C 236.57995,145.0919 236.57511,145.01698 236.57028,144.94203 C 236.56542,144.86715 236.56299,144.82969 236.56301,144.82965 C 236.5533,144.67985 236.54725,144.58621 236.54484,144.54871 C 236.5424,144.51129 236.53877,144.4551 236.53394,144.38015 L 224.52037,141.66176 C 223.45398,141.42985 222.61686,140.97666 222.00901,140.30216 C 221.40116,139.62775 221.06337,138.76703 220.99565,137.71998 C 220.91812,136.52135 221.26599,135.50251 222.03925,134.66345 C 222.81251,133.82449 223.79756,133.36627 224.9944,133.28881 C 225.51881,133.25494 226.05004,133.33342 226.58809,133.52426 C 227.12612,133.7152 227.63443,134.02086 228.11301,134.44124 L 237.5343,142.39983 C 237.59951,142.24519 237.68709,142.14549 237.79706,142.10072 C 237.907,142.05603 238.03355,141.99143 238.17673,141.9069 L 234.60034,130.18764 C 234.42809,129.82268 234.33591,129.54653 234.32381,129.35919 C 234.31168,129.17195 234.30078,129.00339 234.2911,128.8535 C 234.21852,127.73163 234.58714,126.74998 235.39696,125.90855 C 236.20675,125.06723 237.17262,124.61026 238.29456,124.53763 C 239.34155,124.46997 240.32123,124.8011 241.23361,125.53103 C 242.14595,126.26107 242.63842,127.18702 242.71101,128.30889 C 242.73037,128.60861 242.72739,128.8533 242.70207,129.04296 C 242.6767,129.23273 242.6713,129.43996 242.68586,129.66466 L 240.53661,141.75425 C 240.68642,141.7446 240.81949,141.77361 240.93582,141.84128 C 241.05211,141.90903 241.19002,142.01295 241.34957,142.15305 L 249.66709,133.04708 C 250.01742,132.64832 250.44708,132.31961 250.95607,132.06095 C 251.46501,131.80239 252.01916,131.6537 252.61852,131.61488 C 253.74041,131.54237 254.73761,131.85356 255.61013,132.54846 C 256.48257,133.24346 256.95758,134.19027 257.03515,135.38888 C 257.10283,136.43594 256.87875,137.33301 256.36288,138.0801 C 255.84695,138.82728 255.11264,139.38212 254.15997,139.74462 L 242.59671,143.988 C 242.60638,144.13787 242.61364,144.25025 242.61851,144.32513 C 242.62334,144.40008 242.63303,144.54991 242.64759,144.77463 L 254.66097,147.49028 C 255.64757,147.65219 256.4448,148.07035 257.05269,148.74477 C 257.6605,149.41925 257.99835,150.28089 258.06623,151.32969 L 258.06623,151.32969 z M 306.08759,154.14945 C 306.45543,160.51458 305.37754,165.91093 302.85389,170.33851 C 300.33017,174.76611 296.07314,177.15302 290.08281,177.49925 C 287.16163,177.66809 284.56881,177.32962 282.30434,176.48384 C 280.03984,175.63806 278.83834,174.01691 278.69984,171.6204 C 278.58297,169.59863 278.90062,167.94654 279.65278,166.66412 C 280.40491,165.38172 281.75439,164.68425 283.70123,164.57171 C 284.22585,164.5414 285.03496,164.56984 286.12856,164.65701 C 287.22212,164.74422 288.03123,164.77265 288.55589,164.74231 C 290.95238,164.60381 292.54577,163.57265 293.33607,161.64883 C 294.12632,159.72505 294.44786,157.48994 294.30072,154.94351 C 294.10163,151.49958 293.34961,149.21418 292.04465,148.08732 C 290.73964,146.96052 288.95455,146.29337 286.68938,146.08587 C 284.42416,145.87843 282.69496,145.52764 281.50176,145.0335 C 280.30852,144.53943 279.65132,143.24402 279.53015,141.14726 C 279.3744,138.45283 279.81995,136.73694 280.86682,135.99961 C 281.91365,135.26236 283.49507,134.68262 285.6111,134.2604 C 287.72708,133.83827 289.31536,133.0518 290.37593,131.90099 C 291.43645,130.75028 291.87148,128.52696 291.68101,125.23102 C 291.54691,122.91134 290.86593,121.20463 289.63808,120.11088 C 288.41019,119.01724 286.67386,118.53527 284.42909,118.66496 C 283.3798,118.72566 282.35297,118.84141 281.3486,119.0122 C 280.34419,119.18311 279.36225,119.40906 278.40276,119.69005 C 278.22132,124.3574 278.01307,130.82963 277.77802,139.10675 C 277.54294,147.38395 277.41972,152.72512 277.40835,155.13027 C 277.32342,156.26318 277.2897,158.93238 277.30718,163.13789 C 277.32465,167.34342 277.24841,170.57815 277.07848,172.84209 C 276.86704,174.35645 276.37507,175.58668 275.60258,176.53279 C 274.83007,177.47891 273.73273,177.99306 272.31055,178.07526 C 270.43867,178.18345 269.04844,177.85067 268.13986,177.07692 C 267.23127,176.30317 266.72504,175.01783 266.62119,173.2209 C 266.59519,172.77122 266.57356,172.39694 266.55629,172.09805 C 266.53901,171.79918 266.55919,171.49768 266.61681,171.19355 C 266.47517,163.53883 266.53377,155.77854 266.79261,147.91265 C 267.05145,140.04682 267.453,131.06444 267.99729,120.96551 C 267.20892,120.33618 266.62448,119.65695 266.24395,118.92781 C 265.86341,118.1988 265.64932,117.42205 265.60167,116.59756 C 265.51947,115.17543 265.80733,113.9758 266.46524,112.99864 C 267.12315,112.02162 268.11056,111.23182 269.42748,110.62925 C 271.32675,109.69419 273.72785,108.99234 276.63076,108.5237 C 279.53366,108.05519 282.51972,107.7322 285.58896,107.55474 C 290.90476,107.24756 295.00917,108.40013 297.90219,111.01245 C 300.79514,113.6249 302.39958,117.66395 302.71553,123.12962 C 302.89289,126.1989 302.53424,129.09321 301.6396,131.81259 C 300.74487,134.53206 299.26882,136.92697 297.21143,138.99734 C 300.06313,140.26133 302.20349,142.2042 303.63252,144.82597 C 305.06147,147.4478 305.87983,150.55563 306.08759,154.14945 L 306.08759,154.14945 z M 348.90529,121.25246 C 349.00554,123.27518 348.53853,124.83785 347.50426,125.94048 C 346.46992,127.04321 344.94144,127.6447 342.91881,127.74494 C 341.49597,127.81554 340.42439,127.39935 339.70408,126.49637 C 338.9837,125.59348 338.18484,124.24391 337.30749,122.44764 C 336.43007,120.65148 335.49999,119.30841 334.51724,118.41843 C 333.53444,117.52857 332.14328,117.12822 330.34376,117.21739 C 328.17294,117.32509 326.54886,117.87494 325.4715,118.86695 C 324.39411,119.85908 323.90738,121.40302 324.01132,123.49878 C 324.14134,126.12134 325.2023,128.20912 327.19421,129.76211 C 329.18608,131.3152 332.07574,133.18076 335.8632,135.3588 C 339.65061,137.53692 342.64312,139.96066 344.84073,142.63004 C 347.03827,145.29947 348.25031,148.91836 348.47687,153.48669 C 348.79257,159.85462 347.49532,165.11956 344.58511,169.28154 C 341.67483,173.44353 337.14822,175.67681 331.00529,175.98141 C 326.36193,176.21164 322.39553,174.96275 319.10607,172.23473 C 315.8166,169.50672 313.42214,165.88918 311.92269,161.38209 C 311.66065,160.64528 311.45481,159.90475 311.30517,159.1605 C 311.15551,158.41628 311.064,157.70766 311.03064,157.03464 C 310.92291,154.86204 311.44429,153.25909 312.59479,152.22579 C 313.74528,151.19253 315.44433,150.62017 317.69194,150.5087 C 319.03977,150.44189 320.07943,150.97242 320.81094,152.10027 C 321.54242,153.22817 322.37581,154.89503 323.3111,157.10084 C 324.24636,159.3067 325.25124,161.02143 326.32575,162.24503 C 327.40022,163.46866 328.9113,164.03219 330.859,163.9356 C 332.95662,163.8316 334.56212,162.88851 335.67551,161.10632 C 336.78885,159.32416 337.29167,157.34676 337.18397,155.17412 C 337.03912,152.25354 335.99042,150.03407 334.03786,148.51572 C 332.08525,146.99743 329.25461,145.18531 325.54594,143.07938 C 321.83723,140.97351 318.94405,138.65805 316.86639,136.13299 C 314.78872,133.60801 313.63472,130.02291 313.4044,125.37769 C 313.13327,119.90961 314.52162,115.35422 317.56945,111.71151 C 320.61727,108.06893 324.83776,106.1139 330.23093,105.84642 C 334.57616,105.63103 338.28119,106.51706 341.34606,108.50449 C 344.41085,110.49205 346.6837,113.55188 348.16461,117.68399 C 348.34056,118.20148 348.50056,118.77562 348.64463,119.40641 C 348.78862,120.03732 348.87551,120.65267 348.90529,121.25246 L 348.90529,121.25246 z M 395.60983,130.60562 C 395.99392,140.19819 394.92189,149.0418 392.39376,157.13647 C 389.86555,165.23118 384.9715,170.47484 377.7116,172.86746 C 377.04247,173.04452 376.37231,173.18406 375.70113,173.28607 C 375.02991,173.38808 374.35676,173.4526 373.68166,173.47963 C 371.88316,173.55165 370.56203,172.89125 369.71829,171.49842 C 368.87452,170.10559 368.41362,168.43492 368.33561,166.4864 C 368.2786,165.06299 368.51744,164.00294 369.05214,163.30623 C 369.58681,162.60955 370.55626,161.97012 371.9605,161.38794 C 372.98788,160.82271 373.88668,160.31805 374.65691,159.87396 C 375.42709,159.4299 376.21274,158.89129 377.01388,158.25813 C 380.27479,155.35129 382.39087,151.49523 383.36212,146.68992 C 384.33332,141.88467 384.70039,136.52176 384.46334,130.60118 C 384.28623,126.17911 383.37149,122.5562 381.71913,119.73243 C 380.06671,116.90877 377.21699,115.57794 373.16996,115.73994 C 372.34663,115.77297 371.69118,115.79922 371.20361,115.81868 C 370.71601,115.83827 370.2496,115.89451 369.80437,115.98741 C 369.36331,121.86004 368.94224,127.75058 368.54114,133.65908 C 368.14001,139.56765 367.79545,145.4927 367.50746,151.43424 C 367.3994,152.48863 367.31013,154.95007 367.23966,158.81858 C 367.16916,162.68712 367.02891,165.75167 366.81891,168.01224 C 366.6647,169.74466 366.25155,171.13101 365.57946,172.1713 C 364.90734,173.2116 363.74705,173.76476 362.0986,173.83077 C 360.07507,173.9118 358.57768,173.5402 357.60643,172.71598 C 356.63517,171.89176 356.18704,170.53989 356.26205,168.66038 L 356.2215,167.64771 C 356.09546,160.74782 356.45352,151.40733 357.29567,139.6262 C 358.13782,127.84514 358.68042,120.29863 358.92346,116.98663 C 357.71724,116.88473 356.83404,116.39462 356.27386,115.51631 C 355.71367,114.63812 355.40808,113.56229 355.35709,112.28884 C 355.28807,110.56543 355.60867,109.20157 356.31887,108.19724 C 357.02907,107.19305 358.19939,106.43288 359.82983,105.91672 C 361.45725,105.32569 363.22497,104.95437 365.13298,104.80276 C 367.04097,104.65129 369.26927,104.52449 371.81791,104.42237 C 380.2102,104.08637 386.18583,106.17438 389.7448,110.68641 C 393.3037,115.19856 395.25871,121.83829 395.60983,130.60562 L 395.60983,130.60562 z M 446.91993,153.67919 C 447.82173,147.35578 448.57795,141.99274 449.1886,137.59005 C 449.79915,133.18744 450.05718,128.96152 449.96269,124.91228 C 449.94166,124.01353 449.58905,123.38438 448.90486,123.02484 C 448.22058,122.66539 447.46746,122.53279 446.64551,122.62703 L 446.19519,122.63754 C 444.32066,122.68135 441.79211,122.83425 438.60953,123.09624 C 435.42688,123.35833 433.38705,123.53737 432.49003,123.63336 C 431.73947,123.65093 430.03602,123.80334 427.37968,124.09059 C 424.72329,124.37794 422.64549,124.53909 421.14629,124.57405 C 419.27178,124.61786 417.92827,124.10526 417.11577,123.03624 C 416.30322,121.96731 415.87508,120.49558 415.83133,118.62104 C 415.79281,116.97177 416.11953,115.70769 416.8115,114.82882 C 417.50344,113.95006 418.59728,113.4181 420.09302,113.23293 C 422.41079,112.8785 424.8237,112.59689 427.33174,112.38809 C 429.83973,112.1794 432.89142,111.95797 436.48682,111.72378 C 438.50787,111.52646 440.5678,111.3845 442.66661,111.2979 C 444.76534,111.21141 446.86455,111.14362 448.96424,111.09454 C 453.61197,110.98609 457.02196,111.65696 459.19421,113.10714 C 461.36635,114.55744 462.50495,117.5314 462.61002,122.02902 C 462.71851,126.67867 462.43437,131.37454 461.75758,136.11663 C 461.08066,140.85878 460.10892,146.62018 458.84234,153.40084 C 461.2403,153.34487 463.03928,153.30287 464.23927,153.27483 C 465.43914,153.24684 467.23903,153.20481 469.63896,153.14876 C 470.91295,153.11904 471.8685,153.09673 472.50561,153.08184 C 473.14257,153.06698 474.13656,153.04377 475.48758,153.01221 C 477.5156,153.11507 479.00965,153.64293 479.96974,154.5958 C 480.92966,155.54871 481.43417,157.07498 481.48327,159.17461 C 481.5252,160.97406 481.01304,162.33633 479.94677,163.26142 C 478.88035,164.18653 477.40993,164.67097 475.53552,164.71472 C 472.68703,164.85633 468.78838,164.96612 463.83959,165.04411 C 458.89066,165.12211 455.74075,165.17688 454.38986,165.20842 C 450.19234,165.30642 445.9019,165.48169 441.51853,165.73421 C 437.13507,165.98674 431.72238,166.30085 425.28045,166.67652 C 424.15463,166.70281 422.09381,166.82602 419.09797,167.04615 C 416.10209,167.26629 413.7795,167.3956 412.13018,167.43411 C 410.18063,167.47963 408.87509,166.98491 408.21355,165.94996 C 407.552,164.91501 407.1976,163.38524 407.15034,161.36064 C 407.10832,159.56121 407.49002,158.23954 408.29544,157.3956 C 409.10084,156.5517 410.40151,156.03368 412.19745,155.84155 C 414.59029,155.48533 417.17294,155.23729 419.94541,155.09745 C 422.71784,154.95765 426.05185,154.76717 429.94746,154.52601 C 431.74511,154.40897 434.53589,154.24994 438.3198,154.04894 C 442.10363,153.84797 444.97034,153.72472 446.91993,153.67919 L 446.91993,153.67919 z M 506.2974,139.85907 C 504.19725,139.84116 502.62663,139.30266 501.58554,138.24358 C 500.54443,137.18457 500.03254,135.64251 500.04986,133.6174 C 500.0678,131.5173 500.56828,130.00266 501.5513,129.07349 C 502.5343,128.1444 504.07652,127.61374 506.17796,127.4815 C 508.12923,127.34807 510.2114,127.27202 512.42449,127.25335 C 514.63754,127.23477 517.35657,127.2017 520.58161,127.15415 C 524.78379,126.96488 528.89106,126.84983 532.90343,126.809 C 536.91572,126.76826 540.83435,126.76421 544.65934,126.79686 C 546.53421,126.81293 549.42152,126.85637 553.32126,126.92719 C 557.22088,126.9981 560.18325,127.04219 562.20839,127.05946 C 564.23339,127.07681 565.78508,127.63391 566.86347,128.73077 C 567.9417,129.82771 568.47156,131.46377 568.45305,133.63894 C 568.4408,135.06349 568.1686,136.16716 567.63646,136.94996 C 567.10416,137.73282 566.42433,138.27085 565.59698,138.56406 C 564.76948,138.85732 563.86779,139.05607 562.8919,139.16031 C 561.91586,139.26462 560.71563,139.31067 559.29119,139.29846 C 557.56633,139.28375 555.01684,139.24319 551.64272,139.17679 C 548.26847,139.11044 545.79405,139.07052 544.21946,139.05704 C 540.01912,139.02117 535.74345,139.02216 531.39243,139.06002 C 527.04132,139.09794 522.54039,139.20963 517.88962,139.39508 C 517.06382,139.38805 515.319,139.46698 512.65517,139.63188 C 509.99129,139.79683 507.87203,139.87256 506.2974,139.85907 L 506.2974,139.85907 z M 668.28199,150.22897 C 668.2286,151.20165 667.80809,152.02353 667.02046,152.69461 C 666.23266,153.36573 665.35156,153.67458 664.37715,153.62116 C 663.47937,153.57199 662.76482,153.25089 662.2335,152.65786 C 661.70202,152.06486 661.27352,151.30924 660.94799,150.39098 C 660.74356,150.00387 660.02997,148.29326 658.8072,145.25914 C 657.58428,142.22507 656.98518,140.48314 657.0099,140.03334 C 657.06723,138.98575 657.44923,138.18056 658.1559,137.61776 C 658.86242,137.05502 659.74044,136.80239 660.78997,136.85987 C 661.53767,136.90088 662.18136,137.14291 662.72106,137.58597 C 663.26059,138.02909 663.73383,138.63771 664.14077,139.41184 C 664.81235,140.87537 665.68074,142.85669 666.74593,145.35582 C 667.81096,147.855 668.32297,149.47938 668.28199,150.22897 L 668.28199,150.22897 z M 658.69912,154.43506 C 658.64564,155.40957 658.22511,156.23191 657.43752,156.90208 C 656.64978,157.57228 655.7687,157.88067 654.79428,157.82726 C 653.89651,157.77808 653.18193,157.45744 652.65056,156.86533 C 652.11904,156.27324 651.68942,155.55469 651.3617,154.70967 C 650.54826,153.08805 649.68092,151.08752 648.75969,148.70809 C 647.83832,146.3287 647.39405,144.84007 647.42688,144.24218 C 647.48432,143.19276 647.88657,142.36942 648.63363,141.77216 C 649.38055,141.17496 650.27786,140.90505 651.32555,140.96243 C 652.00013,140.99942 652.6058,141.25771 653.14257,141.73729 C 653.67919,142.21693 654.18731,142.88339 654.66692,143.73669 C 655.21141,144.74213 656.0288,146.60835 657.11909,149.33533 C 658.20923,152.06235 658.73591,153.76226 658.69912,154.43506 L 658.69912,154.43506 z M 603.32553,108.13771 C 603.43631,106.11567 604.1236,104.87609 605.3874,104.41897 C 606.65115,103.96199 608.36906,103.79297 610.54112,103.91193 C 611.88855,103.98583 613.02137,104.55495 613.93958,105.61929 C 614.85772,106.68376 615.39027,107.93333 615.53725,109.36802 C 615.53413,110.79644 615.44512,112.76382 615.27022,115.27015 C 615.09525,117.77659 614.98724,119.40459 614.9462,120.15415 C 618.02594,120.17259 621.17874,120.21378 624.4046,120.27771 C 627.63037,120.34175 631.60682,120.42807 636.33396,120.53668 C 636.46226,119.56635 636.57185,118.59539 636.66274,117.62382 C 636.75351,116.65235 636.8379,115.45538 636.9159,114.0329 C 636.97325,112.98533 637.03451,111.5244 637.09967,109.6501 C 637.16473,107.77591 637.22193,106.38903 637.27128,105.48943 C 637.38202,103.46739 638.01615,102.16896 639.17366,101.59416 C 640.33104,101.01949 641.99578,100.79163 644.16788,100.91058 C 646.48977,101.03789 648.08698,101.70764 648.95953,102.91984 C 649.83194,104.13218 650.2005,105.97334 650.06522,108.44333 C 649.91327,111.21511 649.74855,113.53501 649.57107,115.40303 C 649.39345,117.27117 649.17637,119.17468 648.91982,121.11356 C 649.81928,121.16291 651.2249,121.22113 653.1367,121.28825 C 655.04835,121.35546 656.49054,121.41569 657.46328,121.46894 C 659.93508,121.60444 661.70917,122.13352 662.78556,123.05617 C 663.86179,123.97891 664.33222,125.6762 664.19685,128.14803 C 664.10239,129.87034 663.56151,131.17387 662.5742,132.05864 C 661.58673,132.94347 660.19442,133.33663 658.39727,133.23811 L 646.93924,132.61025 C 646.37674,137.38586 645.49719,142.12571 644.30058,146.82983 C 643.10383,151.53399 641.55871,156.08792 639.66521,160.49163 C 638.63438,162.83743 637.59451,165.01448 636.54562,167.02277 C 635.49661,169.03107 634.36365,170.86559 633.14675,172.52635 C 632.50593,173.24309 631.79891,173.80538 631.02567,174.21321 C 630.25233,174.62103 629.41592,174.80029 628.51644,174.75101 C 626.79412,174.65663 625.21505,174.00712 623.77923,172.80249 C 622.34331,171.59785 621.66851,170.20845 621.75481,168.63427 C 621.76699,168.41122 622.42439,167.03935 623.72703,164.51864 C 625.02957,161.99795 625.72245,160.66469 625.80568,160.51887 C 626.49376,158.90433 627.17971,157.34606 627.86355,155.84404 C 628.5473,154.34205 629.22709,152.89621 629.90295,151.50653 C 631.19562,148.4966 632.26911,145.36278 633.12343,142.10505 C 633.97765,138.84739 634.65113,135.46701 635.14389,131.9639 L 615.00531,131.42426 C 614.95197,132.39696 614.9955,134.68976 615.13589,138.30267 C 615.27622,141.91565 615.29099,144.73317 615.18022,146.75526 C 615.08581,148.47755 614.36369,149.65838 613.01385,150.29774 C 611.66395,150.93714 610.01544,151.20348 608.06832,151.09676 C 606.42098,151.00651 605.2132,150.43328 604.44498,149.37707 C 603.6767,148.3209 603.26275,146.96505 603.20312,145.3095 L 602.59244,131.75634 C 601.84464,131.7154 600.11564,131.75223 597.40544,131.86683 C 594.6952,131.98151 592.62797,131.9998 591.20372,131.92172 C 589.40648,131.82328 588.23824,131.21462 587.69899,130.09576 C 587.15972,128.97697 586.94138,127.48146 587.04398,125.60923 C 587.13835,123.887 587.6782,122.60221 588.66355,121.75484 C 589.64887,120.90757 591.04426,120.45819 592.84972,120.4067 C 594.12632,120.40152 595.93074,120.36882 598.26298,120.30861 C 600.59518,120.24849 602.09862,120.23689 602.77329,120.27381 C 602.8471,118.9264 602.93914,116.90372 603.04941,114.20576 C 603.15963,111.50792 603.25167,109.48524 603.32553,108.13771 L 603.32553,108.13771 z M 758.76085,143.8025 C 758.57212,145.44148 757.72772,146.87272 756.22766,148.09621 C 754.72743,149.31975 753.15788,149.83718 751.51901,149.64851 C 750.54937,149.53694 749.64756,149.16911 748.81357,148.54502 C 747.97941,147.92098 747.19601,147.18894 746.46336,146.34889 C 744.64007,144.47839 740.72004,140.32801 734.70327,133.89773 C 728.68637,127.46753 723.80887,122.45217 720.07073,118.85164 C 716.25183,121.20451 712.47812,123.65743 708.74961,126.21043 C 705.02102,128.76352 701.3792,131.38369 697.82415,134.07093 C 697.09301,134.51396 695.58495,135.6421 693.29997,137.45536 C 691.01493,139.26869 689.17502,140.66183 687.78022,141.63479 C 686.97451,142.06922 686.27528,142.40345 685.68251,142.63746 C 685.08971,142.87154 684.42041,142.94564 683.67462,142.85977 C 682.03565,142.67115 680.67854,141.83529 679.60329,140.35218 C 678.52802,138.86913 678.08042,137.3454 678.26049,135.78098 C 678.36328,134.88787 678.59818,134.16014 678.96519,133.59779 C 679.33217,133.03553 679.88981,132.4583 680.6381,131.86611 C 683.0076,129.64695 685.57098,127.54499 688.32823,125.56022 C 691.08544,123.57554 694.51551,121.15771 698.61844,118.30671 C 703.04517,115.26824 706.77198,112.73435 709.79887,110.70503 C 712.82568,108.67583 715.90311,106.85974 719.03115,105.25676 C 719.84558,104.74603 720.56571,104.39439 721.19155,104.20186 C 721.81728,104.00947 722.50307,103.95616 723.24893,104.04193 C 725.63183,104.31628 727.21606,105.1405 728.00164,106.51459 C 728.7871,107.88882 729.03404,109.84287 728.74244,112.37673 C 735.13275,117.86764 740.48626,122.52261 744.80298,126.34168 C 749.11955,130.16084 753.03376,134.19766 756.54561,138.45215 C 757.34445,139.37356 757.94344,140.23459 758.34256,141.03525 C 758.74151,141.83598 758.88094,142.7584 758.76085,143.8025 L 758.76085,143.8025 z M 733.92309,138.22594 C 733.68288,140.31242 732.79537,141.6258 731.26057,142.16609 C 729.72565,142.70644 727.80313,142.84365 725.493,142.57771 C 724.82353,142.50069 723.841,142.34982 722.54538,142.12509 C 721.24966,141.90042 720.3035,141.75373 719.7069,141.68502 C 718.06789,141.49641 715.65681,141.29446 712.47364,141.07918 C 709.29038,140.86396 706.95388,140.67059 705.46412,140.49908 C 703.5268,140.27614 702.27615,139.66034 701.71215,138.6517 C 701.14809,137.64312 700.97757,136.17018 701.20058,134.23286 C 701.38061,132.66852 702.03732,131.55482 703.17071,130.89175 C 704.30403,130.22878 705.74025,129.88492 707.47937,129.86018 C 709.51695,129.86805 711.61841,129.97768 713.78377,130.18908 C 715.94904,130.40057 718.67066,130.69494 721.94863,131.07218 C 723.43837,131.2437 724.55617,131.37236 725.30204,131.45816 C 726.04779,131.54405 727.16559,131.67271 728.65544,131.84414 C 730.73324,132.15892 732.19069,132.77962 733.02778,133.70626 C 733.86474,134.63298 734.16318,136.13954 733.92309,138.22594 L 733.92309,138.22594 z M 751.17764,157.53842 C 751.04042,158.72991 750.70953,159.63506 750.18497,160.25385 C 749.66025,160.87268 749.04561,161.29267 748.34103,161.51382 C 747.6363,161.73501 746.88858,161.83787 746.09789,161.8224 C 745.30704,161.80697 744.27772,161.72628 743.00992,161.58033 C 740.32857,161.27173 736.34734,160.7757 731.06621,160.09225 C 725.78496,159.40883 721.8774,158.92128 719.34352,158.62961 C 717.10786,158.37231 715.26381,158.16006 713.81135,157.99285 C 712.3588,157.82569 710.88245,157.69354 709.38229,157.59642 C 709.76964,158.17001 710.0703,158.67646 710.28426,159.11577 C 710.49815,159.55512 710.57506,160.03582 710.51502,160.55787 C 710.4463,161.15453 709.11128,163.07717 706.50997,166.32579 C 703.90857,169.57443 702.46608,171.44599 702.18249,171.94048 C 702.13954,172.31339 702.27945,172.57509 702.60222,172.72559 C 702.92492,172.87609 703.31003,172.97709 703.75755,173.0286 C 706.43879,173.33721 709.31254,173.2906 712.37882,172.88876 C 715.44502,172.48692 719.01699,171.95483 723.09474,171.29248 C 722.49213,170.61858 721.96376,169.6325 721.50961,168.33426 C 721.05536,167.03602 720.87107,166.0149 720.95676,165.27091 C 721.13698,163.70472 722.12951,162.45964 723.93437,161.53567 C 725.73912,160.61173 727.461,160.24408 729.10002,160.43271 C 729.99493,160.53573 730.73966,160.79102 731.33423,161.19857 C 731.92867,161.60615 732.51432,162.25876 733.09118,163.15639 C 734.65625,165.2995 736.69474,168.74258 739.20666,173.48565 C 741.71843,178.22872 742.88432,181.38244 742.70434,182.94682 C 742.54974,184.28927 741.66071,185.4518 740.03723,186.43441 C 738.4136,187.417 736.89422,187.82685 735.47907,187.66398 C 734.06379,187.50107 732.93619,186.80498 732.09627,185.5757 C 731.25623,184.34639 730.36691,182.88518 729.42832,181.19204 C 725.59985,181.65821 722.40135,182.06418 719.83281,182.40995 C 717.26417,182.75571 714.55066,183.04748 711.69227,183.28524 C 708.8338,183.52299 705.98829,183.64843 703.15575,183.66154 C 700.32315,183.67464 697.56622,183.52689 694.88498,183.21828 C 692.20187,182.90945 690.01986,182.18645 688.33896,181.0493 C 686.65802,179.91213 685.95051,178.18845 686.21643,175.87827 C 686.42223,174.09015 688.21371,170.82387 691.59089,166.07942 C 694.96802,161.33499 697.52881,158.27062 699.27328,156.88628 C 698.23094,156.76633 695.90624,156.63054 692.29917,156.47891 C 688.69206,156.32732 685.95717,156.14432 684.09448,155.9299 C 682.53009,155.74986 681.38103,155.24022 680.6473,154.40098 C 679.91355,153.56178 679.62813,152.43456 679.79103,151.01932 C 680.03117,148.9329 680.56294,147.42744 681.38634,146.50293 C 682.20972,145.57847 683.64022,145.12014 685.67786,145.12793 C 687.03746,145.13332 688.91773,145.19906 691.31867,145.32516 C 693.71957,145.45133 695.29294,145.55731 696.03877,145.64313 C 701.36286,145.95369 706.60381,146.33022 711.76163,146.77272 C 716.91938,147.21527 721.9949,147.7239 726.98823,148.2986 L 734.92291,149.21188 C 737.52953,149.51194 739.7066,149.78141 741.45412,150.02031 C 743.20149,150.25925 744.9564,150.59348 746.71884,151.02301 C 748.5643,151.3866 749.8267,152.06042 750.50607,153.04449 C 751.18527,154.0286 751.40912,155.52658 751.17764,157.53842 L 751.17764,157.53842 z"
       id="text2511" />
    <text
       xml:space="preserve"
       style="font-size:40px;font-style:normal;font-weight:normal;line-height:125%;fill:#000000;fill-opacity:1;stroke:none;stroke-width:1px;stroke-linecap:butt;stroke-linejoin:miter;stroke-opacity:1;display:inline;font-family:Bitstream Vera Sans"
       x="386.60013"
       y="1028.6282"
       id="text2515"
       sodipodi:linespacing="125%"><tspan
         sodipodi:role="line"
         id="tspan2517"
         x="386.60013"
         y="1028.6282"
         style="font-size:70px;font-style:normal;font-variant:normal;font-weight:normal;font-stretch:normal;text-align:start;line-height:125%;writing-mode:lr-tb;text-anchor:start;font-family:'';-inkscape-font-specification:''">Since 1999</tspan></text>
    <text
       xml:space="preserve"
       style="font-size:40px;font-style:normal;font-weight:normal;line-height:125%;fill:#000000;fill-opacity:1;stroke:none;stroke-width:1px;stroke-linecap:butt;stroke-linejoin:miter;stroke-opacity:1;display:inline;font-family:Bitstream Vera Sans"
       x="18.747248"
       y="892.54797"
       id="text2519"
       sodipodi:linespacing="125%"><tspan
         sodipodi:role="line"
         id="tspan2521"
         x="18.747248"
         y="892.54797"
         style="font-size:64px;font-style:normal;font-variant:normal;font-weight:normal;font-stretch:normal;text-align:start;line-height:125%;writing-mode:lr-tb;text-anchor:start;font-family:'';-inkscape-font-specification:''">http://www.kbug.gr.jp/</tspan></text>
    <rect
       style="fill:#cf6119;fill-opacity:1"
       id="rect4783"
       width="736.80524"
       height="15.556349"
       x="5.6568542"
       y="17.157854" />
    <path
       style="fill:none;fill-rule:evenodd;stroke:none;stroke-width:1.03755379000000000px;stroke-linecap:butt;stroke-linejoin:miter;stroke-opacity:1"
       d="M 39.9606,195.319 C 162.182,185.644 284.37,176.066 406.922,172.028 C 515.653,168.444 624.974,168.562 733.382,182.703"
       id="path2433"
       inkscape:path-effect="#path-effect2435"
       inkscape:original-d="M 39.575264,195.32856 L 732.44316,182.63162" />
  </g>
  <g
     inkscape:label="Layer 1"
     inkscape:groupmode="layer"
     id="layer1"
     style="display:none">
    <image
       xlink:href="kbug-bug.gif"
       sodipodi:absref="kbug-bug.gif"
       width="712"
       height="593.33331"
       id="image11"
       x="12.571443"
       y="236.64789" />
  </g>
</svg>
