<?xml version="1.0" encoding="UTF-8" standalone="no"?>
<!-- Created with Inkscape (http://www.inkscape.org/) -->
<svg
   xmlns:dc="http://purl.org/dc/elements/1.1/"
   xmlns:cc="http://creativecommons.org/ns#"
   xmlns:rdf="http://www.w3.org/1999/02/22-rdf-syntax-ns#"
   xmlns:svg="http://www.w3.org/2000/svg"
   xmlns="http://www.w3.org/2000/svg"
   xmlns:sodipodi="http://sodipodi.sourceforge.net/DTD/sodipodi-0.dtd"
   xmlns:inkscape="http://www.inkscape.org/namespaces/inkscape"
   width="210mm"
   height="297mm"
   id="svg3699"
   sodipodi:version="0.32"
   inkscape:version="0.46"
   sodipodi:docname="wanted.svg"
   inkscape:output_extension="org.inkscape.output.svg.inkscape"
   inkscape:export-filename="/home/mutoh/work/OSC2008/wanted.png"
   inkscape:export-xdpi="90"
   inkscape:export-ydpi="90">
  <defs
     id="defs3">
    <inkscape:path-effect
       effect="skeletal"
       id="path-effect4761"
       prop_scale="1"
       pattern="M 444.397,653.593 L 444.736,653.593 " />
    <inkscape:perspective
       sodipodi:type="inkscape:persp3d"
       inkscape:vp_x="0 : 526.18109 : 1"
       inkscape:vp_y="0 : 1000 : 0"
       inkscape:vp_z="744.09448 : 526.18109 : 1"
       inkscape:persp3d-origin="372.04724 : 350.78739 : 1"
       id="perspective3705" />
  </defs>
  <sodipodi:namedview
     inkscape:document-units="mm"
     id="base"
     pagecolor="#ffffff"
     bordercolor="#666666"
     borderopacity="1.0"
     inkscape:pageopacity="0.0"
     inkscape:pageshadow="2"
     inkscape:zoom="0.35"
     inkscape:cx="827.14286"
     inkscape:cy="474.2857"
     inkscape:current-layer="layer1"
     showgrid="false"
     inkscape:window-width="664"
     inkscape:window-height="678"
     inkscape:window-x="348"
     inkscape:window-y="32" />
  <metadata
     id="metadata4">
    <rdf:RDF>
      <cc:Work
         rdf:about="">
        <dc:format>image/svg+xml</dc:format>
        <dc:type
           rdf:resource="http://purl.org/dc/dcmitype/StillImage" />
      </cc:Work>
    </rdf:RDF>
  </metadata>
  <g
     inkscape:label="Layer 1"
     inkscape:groupmode="layer"
     id="layer1">
    <text
       xml:space="preserve"
       style="font-size:40px;font-style:normal;font-variant:normal;font-weight:normal;font-stretch:normal;text-align:start;line-height:100%;writing-mode:lr-tb;text-anchor:start;fill:#000000;fill-opacity:1;stroke:none;stroke-width:1px;stroke-linecap:butt;stroke-linejoin:miter;stroke-opacity:1;font-family:'IPAゴシック';-inkscape-font-specification:'IPAゴシック'"
       x="221.50786"
       y="152.50169"
       id="text2412"
       sodipodi:linespacing="100%"><tspan
         sodipodi:role="line"
         id="tspan2414"
         x="221.50786"
         y="152.50169"
         style="font-size:144px;font-style:normal;font-variant:normal;font-weight:normal;font-stretch:normal;fill:#ff0000;fill-opacity:1;font-family:'みかちゃん';-inkscape-font-specification:'みかちゃん'">求人</tspan></text>
    <flowRoot
       xml:space="preserve"
       id="flowRoot2802"
       style="font-size:40px;font-style:normal;font-variant:normal;font-weight:normal;font-stretch:normal;text-align:start;line-height:125%;writing-mode:lr-tb;text-anchor:start;fill:#000000;fill-opacity:1;stroke:none;stroke-width:1px;stroke-linecap:butt;stroke-linejoin:miter;stroke-opacity:1;font-family:'IPAゴシック';-inkscape-font-specification:'IPAゴシック'"
       transform="translate(2.6919628,116.78908)"><flowRegion
         id="flowRegion2804"><rect
           id="rect2806"
           width="716.86609"
           height="786.58746"
           x="25.336378"
           y="92.258598"
           style="writing-mode:lr-tb" /></flowRegion><flowPara
         id="flowPara2820"
         style="font-size:60px;font-style:normal;font-variant:normal;font-weight:normal;font-stretch:normal;font-family:'みかちゃん';-inkscape-font-specification:'みかちゃん'"><flowSpan
   style="font-size:100px;fill:#ff0000;fill-opacity:1"
   id="flowSpan3757">BSD</flowSpan>と<flowSpan
   style="font-size:100px;fill:#fe0000;fill-opacity:1"
   id="flowSpan4284">お酒</flowSpan>を愛し、</flowPara><flowPara
         style="font-size:60px;font-style:normal;font-variant:normal;font-weight:normal;font-stretch:normal;font-family:'みかちゃん';-inkscape-font-specification:'みかちゃん'"
         id="flowPara3755">明るく技術に長けている人を募集します。</flowPara><flowPara
         style="font-size:60px;font-style:normal;font-variant:normal;font-weight:normal;font-stretch:normal;font-family:'みかちゃん';-inkscape-font-specification:'みかちゃん'"
         id="flowPara3751" /><flowPara
         style="font-size:60px;font-style:normal;font-variant:normal;font-weight:normal;font-stretch:normal;font-family:'みかちゃん';-inkscape-font-specification:'みかちゃん'"
         id="flowPara3753">詳しくは</flowPara><flowPara
         style="font-size:100px;font-style:normal;font-variant:normal;font-weight:normal;font-stretch:normal;fill:#ff0000;fill-opacity:1;font-family:'みかちゃん';-inkscape-font-specification:'みかちゃん'"
         id="flowPara4306">   スタッフ</flowPara><flowPara
         style="font-size:60px;font-style:normal;font-variant:normal;font-weight:normal;font-stretch:normal;font-family:'みかちゃん';-inkscape-font-specification:'みかちゃん'"
         id="flowPara4310">まで。</flowPara></flowRoot>    <text
       xml:space="preserve"
       style="font-size:40px;font-style:normal;font-variant:normal;font-weight:normal;font-stretch:normal;text-align:start;line-height:125%;writing-mode:tb-rl;text-anchor:start;fill:#000000;fill-opacity:1;stroke:none;stroke-width:1px;stroke-linecap:butt;stroke-linejoin:miter;stroke-opacity:1;font-family:'IPAゴシック';-inkscape-font-specification:'IPAゴシック'"
       x="1182.8571"
       y="563.79077"
       id="text4420"
       sodipodi:linespacing="125%"><tspan
         sodipodi:role="line"
         id="tspan4422"></tspan></text>
    <path
       style="fill:#c60000;fill-opacity:1;fill-rule:evenodd;stroke:#000000;stroke-width:6.3953805;stroke-linecap:butt;stroke-linejoin:miter;stroke-miterlimit:4;stroke-dasharray:none;stroke-opacity:1;display:inline"
       d="M 470.73847,872.69884 C 470.70352,868.69276 474.27809,866.00783 477.806,863.58452 C 478.84525,860.85636 488.47219,856.8391 488.5563,859.51796 C 487.03511,865.17611 473.13828,878.77957 474.38089,884.87903 C 474.69322,888.1325 471.36822,898.58335 474.87523,898.53998 C 477.67046,897.35408 479.07969,886.95407 480.62143,883.82971 C 482.55843,879.4948 486.97561,873.04359 490.85357,870.78744 C 489.17531,880.10029 491.52368,878.27067 488.45891,887.11246 C 489.43088,892.83445 487.43144,906.31199 487.55158,913.21006 C 488.57205,916.4494 489.66262,906.88898 490.7124,904.77501 C 492.29979,898.77261 494.95535,890.30638 497.86446,885.05139 C 501.24068,877.67986 506.65847,874.58335 506.30937,881.88396 C 507.67511,890.27224 505.13208,903.60565 504.74256,912.14417 C 508.63631,914.44287 511.8485,901.74187 512.9665,897.34264 C 513.36794,892.31507 515.78804,880.57563 517.56074,887.6239 C 518.26595,892.38025 518.28873,912.16414 522.4211,911.0558 C 525.03986,906.59927 529.06892,888.71992 529.64697,883.30329 C 532.35011,886.27052 536.12903,901.79139 535.81092,906.09178 C 536.08482,910.182 533.04182,915.77611 529.16729,918.13087 C 525.83314,921.52267 522.79856,925.14079 521.70106,930.2226 C 519.76589,933.96297 519.26156,937.82005 520.85699,941.84843 C 518.81882,947.01832 525.1217,930.03106 524.90897,926.32489 C 524.91683,921.79883 534.98166,919.98826 537.30987,917.04166 C 541.37738,920.13694 535.13313,932.16203 533.80343,935.38606 C 531.75025,939.70873 531.03413,940.12091 532.28986,945.47795 C 530.58778,949.26796 530.84579,957.41738 530.82091,953.71341 C 530.81303,950.27063 535.60527,933.85754 538.45137,933.99264 C 539.93558,938.64453 538.06008,952.18486 542.23012,954.81651 C 545.01846,958.28161 547.86941,960.06562 552.00748,960.69713 C 556.62912,962.28163 559.80016,964.09535 564.61785,962.42385 C 568.0451,961.16599 575.78048,955.50966 577.0558,950.63067 C 580.63773,943.47449 581.81366,941.89342 587.42235,936.43514 C 589.39206,931.92427 597.47642,934.34487 600.75809,934.44234 C 606.36054,934.53857 609.23405,941.65231 613.34714,945.30626 C 616.36746,948.89333 615.34025,957.61924 620.15366,958.34425 C 623.44015,959.32199 627.01004,962.87897 629.75114,958.89311 C 632.7339,955.99299 637.21387,954.35877 639.19296,950.61001 C 640.59281,945.97413 641.01448,940.60804 645.22746,938.0722 C 648.56609,935.9019 649.85082,932.23129 650.53932,928.1251 C 652.13083,921.90803 654.85103,916.14839 656.56366,909.96748 C 660.95283,909.64176 665.24327,909.86267 669.08514,912.56658 C 672.37931,913.87504 675.74818,910.19127 679.07342,909.42332 C 681.24046,905.54154 684.84314,902.25244 684.17448,897.19997 C 683.70263,893.51005 686.55341,888.18091 683.00677,886.00794 C 674.68607,878.24681 665.66873,871.14593 659.43724,860.99246 C 658.72458,854.84297 657.82732,848.747 655.60579,843.03494 C 652.09738,851.96861 649.61125,861.55602 643.81115,869.02423 C 639.80598,877.16265 631.73464,880.83457 626.09224,887.13408 C 624.2355,891.03468 620.99508,894.55961 622.37025,899.33768 C 621.83286,904.12692 627.10095,905.35842 629.47887,908.36112 C 632.05514,910.06764 636.66504,909.55996 639.18552,907.94606 C 642.18502,904.24154 644.86746,901.11991 642.16346,907.90084 C 640.33542,915.6893 636.21631,925.14834 633.09605,932.27831 C 629.45714,930.24657 624.98372,930.85973 623.24799,926.32158 C 620.69213,920.93814 614.7462,916.06435 610.39879,912.62265 C 605.71484,907.46746 603.52959,908.60742 597.65516,906.15831 C 593.13379,907.54888 586.14736,907.91927 581.96256,909.93485 C 578.53867,915.38128 571.84612,913.9966 569.32626,920.00785 C 570.05067,924.41867 563.90312,927.11366 563.40469,922.70049 C 562.05929,914.37291 561.38628,906.00636 562.15311,897.55638 C 562.96939,895.06513 555.34313,877.62694 558.43255,879.98212 C 564.04922,883.86726 562.5145,882.52831 581.32155,888.41557 C 586.15834,889.8387 574.81483,872.53813 576.09311,869.0178 C 576.29468,858.81036 595.24778,883.63183 598.55297,884.59921 C 601.56346,886.7069 589.39173,863.63772 588.85942,859.88823 C 588.8599,855.3521 606.89892,870.76931 611.85635,871.89474 C 616.58084,872.8343 613.41512,870.11459 613.26949,865.33565 C 613.39071,861.44721 599.52754,854.61235 597.63931,851.52654 C 593.31665,847.96523 587.95487,844.37051 593.30287,845.2116 C 597.7026,845.36078 617.28008,851.2268 620.79599,855.0015 C 623.84211,857.13058 630.27589,863.18864 630.79828,856.71519 C 631.63825,853.15801 627.90843,846.88656 620.69991,840.95023 C 616.66237,836.78636 609.80799,832.78587 604.30017,831.16067 C 602.2246,829.65813 585.28742,828.06256 586.82074,826.99529 C 591.94785,825.02268 620.67218,827.15002 625.91209,827.79825 C 624.66807,823.88024 621.42765,818.46353 617.23025,816.95757 C 612.66619,813.97073 610.09063,811.92143 604.43184,812.47313 C 598.79513,811.2466 590.31893,811.57338 584.74083,813.01681 C 585.38966,811.43235 594.5943,802.94759 601.00768,798.9574 C 605.40417,796.8936 611.16583,794.50969 617.77026,788.07405 C 624.37469,781.63842 607.72394,785.68056 600.88795,785.89739 C 594.36845,785.30819 588.57453,789.7742 582.54597,791.97093 C 576.22208,793.84903 575.11938,792.68473 568.34037,793.04829 C 553.43035,797.66093 539.95713,801.59335 526.48391,805.52577 C 513.01069,809.45819 507.6793,821.55312 492.76929,826.16575 C 487.86958,826.78346 471.00305,830.59595 466.41218,832.32659 C 462.76,835.62826 456.80615,834.4271 455.64632,840.1654 C 454.10033,845.12582 456.77002,844.90616 458.88673,841.52019 C 463.92381,837.97361 476.15222,833.57924 482.23281,833.7841 C 483.60447,836.22445 489.06904,843.35511 483.16999,842.75385 C 480.81729,841.06858 480.13365,844.44167 474.79059,844.83045 C 469.90338,846.71557 459.82538,853.96773 456.84947,858.27161 C 456.51507,861.6127 463.46498,858.75346 465.98326,854.05231 C 468.94081,848.89939 473.29906,853.32929 479.35922,851.19744 C 475.00036,856.61747 474.41893,854.87009 471.16234,861.10511 C 471.11423,866.14716 468.98339,865.64462 465.85132,881.99264 C 472.08711,870.36235 477.06681,870.20081 475.04885,865.62467"
       sodipodi:nodetypes="cccccccccccccccccccccccccccccccccccccccccccccccccccccccccccccccccccccccccccccccccccsccccccccccccc"
       id="path4397" />
    <path
       sodipodi:type="arc"
       style="fill:#000000;fill-opacity:1;display:inline"
       id="path2381"
       sodipodi:cx="191.62593"
       sodipodi:cy="399.70264"
       sodipodi:rx="27.577164"
       sodipodi:ry="30.405592"
       d="M 219.20309,399.70264 A 27.577164,30.405592 0 1 1 164.04877,399.70264 A 27.577164,30.405592 0 1 1 219.20309,399.70264 z"
       transform="matrix(0.3386553,0,0,0.4384751,442.00261,632.67651)" />
    <g
       style="display:inline"
       id="g3215"
       transform="matrix(0.3386553,0,0,0.3847843,444.39727,653.59271)">
      <g
         id="g3207">
        <g
           id="g3175"
           transform="translate(2.0285276e-6,8.2715815e-8)">
          <path
             transform="matrix(2.8461539,0,0,2.4883721,-388.41918,-594.19916)"
             d="M 219.20309,399.70264 A 27.577164,30.405592 0 1 1 164.04877,399.70264 A 27.577164,30.405592 0 1 1 219.20309,399.70264 z"
             sodipodi:ry="30.405592"
             sodipodi:rx="27.577164"
             sodipodi:cy="399.70264"
             sodipodi:cx="191.62593"
             id="path3169"
             style="fill:#000000;fill-opacity:1;display:inline"
             sodipodi:type="arc" />
          <path
             transform="matrix(2.2820513,0,0,2.1395349,-280.3225,-454.0609)"
             d="M 219.20309,399.70264 A 27.577164,30.405592 0 1 1 164.04877,399.70264 A 27.577164,30.405592 0 1 1 219.20309,399.70264 z"
             sodipodi:ry="30.405592"
             sodipodi:rx="27.577164"
             sodipodi:cy="399.70264"
             sodipodi:cx="191.62593"
             id="path3173"
             style="fill:#ffffff;fill-opacity:1;display:inline"
             sodipodi:type="arc" />
        </g>
        <g
           id="g3179"
           transform="translate(7.0710732,-16.970561)">
          <path
             transform="matrix(1,0,0,1.1395349,-9.1923809,-45.16588)"
             d="M 219.20309,399.70264 A 27.577164,30.405592 0 1 1 164.04877,399.70264 A 27.577164,30.405592 0 1 1 219.20309,399.70264 z"
             sodipodi:ry="30.405592"
             sodipodi:rx="27.577164"
             sodipodi:cy="399.70264"
             sodipodi:cx="191.62593"
             id="path3157"
             style="fill:#000000;fill-opacity:1"
             sodipodi:type="arc" />
          <path
             inkscape:transform-center-y="16.970566"
             inkscape:transform-center-x="67.882244"
             transform="matrix(0.4102563,0,0,0.5581396,115.83861,176.61274)"
             d="M 219.20309,399.70264 A 27.577164,30.405592 0 1 1 164.04877,399.70264 A 27.577164,30.405592 0 1 1 219.20309,399.70264 z"
             sodipodi:ry="30.405592"
             sodipodi:rx="27.577164"
             sodipodi:cy="399.70264"
             sodipodi:cx="191.62593"
             id="path3167"
             style="fill:#ffffff;fill-opacity:1;display:inline"
             sodipodi:type="arc" />
        </g>
      </g>
      <g
         id="g3199">
        <g
           id="g3195">
          <path
             transform="matrix(3.0769232,0,0,2.744186,-290.5121,-729.68268)"
             d="M 219.20309,399.70264 A 27.577164,30.405592 0 1 1 164.04877,399.70264 A 27.577164,30.405592 0 1 1 219.20309,399.70264 z"
             sodipodi:ry="30.405592"
             sodipodi:rx="27.577164"
             sodipodi:cy="399.70264"
             sodipodi:cx="191.62593"
             id="path3171"
             style="fill:#000000;fill-opacity:1;display:inline"
             sodipodi:type="arc" />
          <path
             transform="matrix(2.4871795,0,0,2.3023255,-178.20903,-548.12016)"
             d="M 219.20309,399.70264 A 27.577164,30.405592 0 1 1 164.04877,399.70264 A 27.577164,30.405592 0 1 1 219.20309,399.70264 z"
             sodipodi:ry="30.405592"
             sodipodi:rx="27.577164"
             sodipodi:cy="399.70264"
             sodipodi:cx="191.62593"
             id="path3183"
             style="fill:#ffffff;fill-opacity:1;display:inline"
             sodipodi:type="arc" />
        </g>
        <g
           id="g3189"
           transform="translate(-4.2426356,1.414213)">
          <path
             transform="matrix(1.1538461,0,0,1.0465117,41.936878,-41.925365)"
             d="M 219.20309,399.70264 A 27.577164,30.405592 0 1 1 164.04877,399.70264 A 27.577164,30.405592 0 1 1 219.20309,399.70264 z"
             sodipodi:ry="30.405592"
             sodipodi:rx="27.577164"
             sodipodi:cy="399.70264"
             sodipodi:cx="191.62593"
             id="path3163"
             style="fill:#000000;fill-opacity:1"
             sodipodi:type="arc" />
          <path
             inkscape:transform-center-y="14.84926"
             inkscape:transform-center-x="46.669035"
             transform="matrix(0.2820512,0,0,0.4883722,194.85326,185.4071)"
             d="M 219.20309,399.70264 A 27.577164,30.405592 0 1 1 164.04877,399.70264 A 27.577164,30.405592 0 1 1 219.20309,399.70264 z"
             sodipodi:ry="30.405592"
             sodipodi:rx="27.577164"
             sodipodi:cy="399.70264"
             sodipodi:cx="191.62593"
             id="path3165"
             style="fill:#ffffff;fill-opacity:1"
             sodipodi:type="arc" />
        </g>
      </g>
    </g>
    <path
       style="fill:#000000;fill-opacity:1;fill-rule:evenodd;stroke:#000000;stroke-width:0.3609837px;stroke-linecap:butt;stroke-linejoin:miter;stroke-opacity:1;display:inline"
       d="M 496.36127,766.57945 L 494.44554,762.22611 L 483.43013,761.68195 L 475.76724,767.12362 L 474.80938,775.28613 L 477.68296,776.91863 L 480.55655,773.10945 L 484.388,769.30029 L 489.65624,769.30029 L 494.92448,769.84445 L 496.36127,766.57945 z"
       id="path3231" />
    <path
       style="fill:#000000;fill-opacity:1;fill-rule:evenodd;stroke:#000000;stroke-width:0.39472896px;stroke-linecap:butt;stroke-linejoin:miter;stroke-opacity:1;display:inline"
       d="M 546.154,751.893 L 543.858,747.55 L 530.656,747.007 L 530.656,747.007 L 521.472,752.436 L 520.324,760.579 L 523.768,762.208 L 527.212,758.408 L 527.212,758.408 L 531.804,754.608 L 531.804,754.608 L 538.118,754.608 L 538.118,754.608 L 544.432,755.151"
       id="path3236"
       inkscape:path-effect="#path-effect4761"
       inkscape:original-d="M 546.15426,751.89336 L 543.8582,747.5503 L 530.65589,747.00742 L 521.47167,752.43624 L 520.32364,760.57949 L 523.76772,762.20813 L 527.21181,758.40795 L 531.80392,754.60778 L 538.11807,754.60778 L 544.43222,755.15066 L 546.15426,751.89336 z" />
    <g
       style="display:inline"
       id="g3244"
       transform="matrix(0.3386553,0,0,0.3847843,556.4671,644.88604)">
      <path
         sodipodi:nodetypes="ccccccccccc"
         id="path3240"
         d="M -137.17871,522.0321 L -113.13709,503.64732 L -72.124895,497.99047 L -41.012195,499.40468 L -18.384774,502.23311 L -14.142135,537.58845 L -28.284267,563.0443 L -48.083258,581.42907 L -89.095455,588.50014 L -115.96552,564.4585 L -137.17871,522.0321 z"
         style="fill:#000000;fill-opacity:1;fill-rule:evenodd;stroke:#000000;stroke-width:1px;stroke-linecap:butt;stroke-linejoin:miter;stroke-opacity:1" />
      <path
         sodipodi:nodetypes="ccccccccc"
         id="path3242"
         d="M -113.13708,548.90215 L -104.6518,527.68894 L -79.195961,514.96102 L -22.627421,513.54681 L -21.213201,527.68894 L -33.94113,557.38743 L -55.154331,572.94378 L -76.367531,577.18642 L -113.13708,548.90215 z"
         style="fill:#ec6b76;fill-opacity:1;fill-rule:evenodd;stroke:none;stroke-width:1px;stroke-linecap:butt;stroke-linejoin:miter;stroke-opacity:1" />
    </g>
  </g>
</svg>
